<svg width="68" height="62" viewBox="0 0 68 62" fill="none" xmlns="http://www.w3.org/2000/svg">
<path d="M1.13602 27.0513C0.725066 27.0513 0.388112 26.7215 0.382207 26.3093C0.296001 20.8819 0.17476 13.7334 0.00195276 6.57626C-0.0354429 5.01351 0.565249 3.47203 1.65051 2.34858C2.73616 1.22396 4.25521 0.569338 5.81756 0.552805L14.3099 0.460693C14.7315 0.460693 15.0681 0.79253 15.0724 1.20624C15.0771 1.62271 14.7433 1.96439 14.3268 1.96872L5.8341 2.06044C4.67247 2.07304 3.54273 2.55997 2.73498 3.39605C1.92881 4.23135 1.48164 5.37763 1.50919 6.54004C1.68239 13.7023 1.80364 20.8547 1.88984 26.2857C1.89693 26.7022 1.5647 27.0451 1.13602 27.0513Z" fill="#FF5678"/>
<path d="M4.58193 58.7681C2.05084 58.7681 0.862049 55.8618 0.823079 53.7988C0.701445 47.4344 0.606184 41.0681 0.510137 34.7006L0.44125 30.1025C0.434952 29.6857 0.767576 29.3428 1.18326 29.3369C1.60681 29.3369 1.94298 29.6668 1.94888 30.0789L2.01856 34.6786C2.11382 41.0437 2.20908 47.4081 2.33071 53.7696C2.35354 54.9868 3.03375 57.26 4.56894 57.26L15.9289 57.0723C17.8444 57.0313 19.763 57.0286 21.5635 57.0286H23.0215C30.4042 57.0286 32.7586 56.842 34.8362 56.6774C36.4296 56.5515 37.8062 56.4432 41.0608 56.4432C42.3921 56.4432 43.7253 56.4641 45.0535 56.485C46.3647 56.5058 47.6715 56.5267 48.9674 56.5267L60.4652 56.337C60.5112 56.3354 60.5569 56.3397 60.6029 56.3472C60.7088 56.3645 60.8124 56.3736 60.9123 56.3736C61.9677 56.3736 62.4487 55.404 62.4487 54.5038C62.4286 52.8052 62.4007 51.1413 62.3668 49.4782C62.3586 49.0613 62.6888 48.7173 63.1057 48.709C63.5092 48.6945 63.8666 49.0318 63.8749 49.4479C63.9087 51.1149 63.9367 52.7832 63.9567 54.4518C63.9567 56.6416 62.4578 58.1438 60.4246 57.8462L48.98 58.0347C47.6562 58.0347 46.3458 58.0146 45.0298 57.9938C43.7096 57.9729 42.3846 57.9513 41.0608 57.9513C37.866 57.9513 36.5174 58.0583 34.9551 58.1823C32.8495 58.3484 30.464 58.537 23.0215 58.537H21.5635C19.7709 58.537 17.8617 58.5405 15.9573 58.5807L4.58193 58.7681Z" fill="#FF5678"/>
<path d="M63.0167 45.8356C62.6097 45.8356 62.2739 45.5117 62.2633 45.1019C62.1362 40.2739 61.9657 35.3688 61.8008 30.6251C61.517 22.4551 61.2241 14.0064 61.1414 5.67508C61.1296 4.55046 60.6809 3.49787 59.8775 2.70981C59.0733 1.92292 58.0183 1.47654 56.8874 1.50842L18.2526 1.92568C17.831 1.92568 17.4944 1.59384 17.4901 1.18013C17.4854 0.763658 17.8192 0.42198 18.2357 0.41765L56.8709 0.000393638C56.8925 0 56.9145 0 56.9362 0C58.4391 0 59.857 0.577861 60.9336 1.63242C62.0248 2.70233 62.6341 4.13241 62.6495 5.65973C62.7321 13.9726 63.025 22.4118 63.3088 30.5727C63.4737 35.3192 63.6442 40.2279 63.7713 45.0613C63.7827 45.4778 63.4537 45.8242 63.0167 45.8356Z" fill="#FF5678"/>
<path d="M0.902967 13.9438C0.489254 13.9438 0.152299 13.6107 0.14915 13.1966C0.14482 12.7802 0.4802 12.4393 0.896276 12.4357L62.0023 11.8953C62.4231 11.8953 62.7597 12.2283 62.7632 12.6424C62.7671 13.0593 62.4322 13.3998 62.0161 13.4033C62.0157 13.4033 0.910053 13.9438 0.902967 13.9438Z" fill="#FF5678"/>
<path d="M7.83847 9.31975C6.98074 9.31975 6.284 8.61789 6.284 7.75464C6.284 7.3673 6.42571 7.02011 6.63512 6.73984C6.70755 6.59223 6.82722 6.46666 6.97601 6.38517C7.08859 6.29267 7.20747 6.2163 7.32596 6.15686C7.66527 5.98642 8.07072 6.09703 8.28171 6.39974C8.92373 6.45485 9.30478 7.12679 9.30478 7.77747C9.30478 8.68599 8.70172 9.31975 7.83847 9.31975Z" fill="#FF5678"/>
<path d="M13.721 8.88089C12.8495 8.88089 12.1315 8.28767 12.015 7.46969C12.0095 7.43427 12.0032 7.33743 12.0032 7.302C12.0032 6.43836 12.5283 6.09432 12.781 5.92978C12.8121 5.9097 12.8436 5.8916 12.8708 5.86877C13.1798 5.60582 13.6596 5.61644 13.9336 5.91167C13.9891 5.97229 14.0343 6.03882 14.0678 6.10849C14.789 6.37498 15.2696 6.98434 15.2696 7.54409C15.2692 8.34396 14.4685 8.88089 13.721 8.88089Z" fill="#FF5678"/>
<path d="M19.3068 8.70761C18.5132 8.70761 17.9802 8.13448 17.9802 7.28028C17.9802 6.21195 18.7203 5.65259 19.4513 5.65259C19.6591 5.65259 19.8476 5.73683 19.9838 5.87224C20.5318 5.99309 20.8943 6.46466 20.8943 7.10078C20.8951 7.95734 20.1527 8.70761 19.3068 8.70761Z" fill="#FF5678"/>
<path d="M20.5581 43.0148C20.403 43.0148 20.2463 42.9675 20.1121 42.8687L18.401 41.6071C16.3241 40.0735 13.9694 38.3344 11.4348 36.5433C11.101 36.3068 11.0159 35.847 11.2434 35.5069C12.2165 34.0552 13.2876 32.644 14.3229 31.2784C15.8616 29.2508 17.4523 27.1539 18.7068 24.9361C18.8127 24.7495 18.9918 24.6169 19.2008 24.5708C19.4114 24.5244 19.6287 24.5697 19.8023 24.694C20.1649 24.9534 20.5235 25.2156 20.8833 25.4778C21.8536 26.1851 22.8574 26.9169 23.884 27.5672C24.226 27.7849 24.3363 28.2344 24.1308 28.5848C23.0735 30.3959 21.7658 32.098 20.4625 33.7438C22.4448 34.8956 24.3693 36.2591 25.4093 37.022C25.5908 37.1554 25.7034 37.3637 25.716 37.5888C25.7286 37.814 25.6388 38.0333 25.4727 38.1856C23.9757 39.5594 22.4102 41.0403 21.1631 42.7116C21.0151 42.9104 20.7884 43.0148 20.5581 43.0148ZM12.9113 35.7399C15.2275 37.3885 17.3803 38.9776 19.2973 40.3931L20.4144 41.2166C21.4438 39.9381 22.6153 38.7835 23.7745 37.7018C22.5428 36.824 20.7258 35.5923 18.9611 34.6287C18.7655 34.5216 18.6281 34.3346 18.5832 34.1162C18.5395 33.8977 18.5939 33.671 18.732 33.497C20.0354 31.859 21.3682 30.1833 22.4566 28.4387C21.6107 27.8746 20.7915 27.2779 19.9944 26.6965C19.8614 26.5996 19.7287 26.5024 19.5953 26.4056C18.3726 28.436 16.928 30.3412 15.5251 32.1897C14.6496 33.345 13.7482 34.5338 12.9113 35.7399Z" fill="#FF5678"/>
<path d="M43.0325 43.1878C42.8574 43.1878 42.6869 43.1272 42.5511 43.0146C40.8037 41.5644 39.3583 40.4201 38.2561 39.6132C38.0719 39.4781 37.9585 39.2668 37.9487 39.0381C37.9381 38.8094 38.0321 38.5885 38.2046 38.4378C39.7968 37.0396 41.4556 35.5378 42.8558 33.8109C42.0539 33.2453 41.3104 32.6245 40.5861 32.0207C39.8468 31.4031 39.0824 30.7654 38.2853 30.2143C38.1022 30.0883 37.9841 29.8871 37.9633 29.6663C37.9416 29.4443 38.0195 29.2254 38.1746 29.066C38.6517 28.5791 39.1406 28.104 39.6291 27.6288C40.2948 26.9825 40.9821 26.3137 41.6198 25.6307C41.8847 25.3477 42.3224 25.3115 42.6283 25.5457C43.632 26.3102 44.5705 27.1588 45.4778 27.9796C46.6178 29.0105 47.7967 30.0761 49.1225 30.9941C49.6197 31.3385 50.1235 31.6499 50.6187 31.9573C51.0714 32.2376 51.5174 32.5151 51.95 32.8079C52.1315 32.9312 52.2511 33.1272 52.2763 33.3449C52.3019 33.5633 52.2311 33.781 52.083 33.9432C50.9624 35.1627 49.8039 36.3326 48.6832 37.4635C46.8851 39.279 45.1873 40.9933 43.6159 42.9119C43.4888 43.0677 43.3041 43.1657 43.1046 43.1846C43.0805 43.187 43.0569 43.1878 43.0325 43.1878ZM39.8964 38.9558C40.7589 39.6116 41.7756 40.4213 42.9345 41.3743C44.4217 39.623 46.0407 37.9874 47.6113 36.4019C48.5191 35.4859 49.452 34.5435 50.3636 33.5759C50.1849 33.4634 50.0046 33.352 49.824 33.2394C49.3071 32.9186 48.7836 32.5938 48.2644 32.2348C46.8571 31.2606 45.6419 30.1615 44.4658 29.0987C43.7147 28.4193 42.9975 27.7709 42.2441 27.1616C41.7272 27.693 41.1974 28.2083 40.6805 28.7106C40.4101 28.9743 40.1393 29.2373 39.87 29.5022C40.453 29.9446 41.0092 30.4091 41.5524 30.8622C42.483 31.6392 43.3624 32.373 44.3512 32.9977C44.5291 33.1103 44.6516 33.2917 44.6901 33.4984C44.7283 33.7058 44.6783 33.9184 44.5524 34.0877C43.1719 35.933 41.521 37.5076 39.8964 38.9558Z" fill="#FF5678"/>
<path d="M28.1057 45.5854C28.0341 45.5854 27.9605 45.5747 27.8881 45.5527C27.4889 45.4322 27.2633 45.0114 27.3838 44.6131C29.1296 38.8246 30.7774 34.6631 32.2311 30.992C33.6088 27.5126 34.7984 24.508 35.6427 21.1302C35.7435 20.7259 36.1552 20.4807 36.5575 20.5815C36.9618 20.6822 37.207 21.092 37.1063 21.4963C36.2375 24.9705 35.0306 28.0185 33.6332 31.547C32.1905 35.191 30.5553 39.3206 28.8277 45.0488C28.7297 45.3744 28.4301 45.5854 28.1057 45.5854Z" fill="#FF5678"/>
</svg>
