<svg width="461" height="329" viewBox="0 0 461 329" fill="none" xmlns="http://www.w3.org/2000/svg">
<path fill-rule="evenodd" clip-rule="evenodd" d="M264.563 138.187C269.524 141.783 268.735 148.86 267.241 154.002C265.042 161.572 260.661 168.581 255.664 174.622C246.799 185.338 231.75 197.372 217.877 187.964C205.523 179.584 197.731 162.677 195.041 148.435C194.21 144.034 193.102 137.477 197.009 134.168C202.783 129.277 212.969 130.166 219.94 130.796C224.531 131.21 228.961 132.618 233.498 131.957C244.039 130.421 255.771 131.813 264.563 138.187Z" fill="#FF5678"/>
<path fill-rule="evenodd" clip-rule="evenodd" d="M50.84 194.269C60.8904 207.018 77.9771 209.032 93.1527 208.907C102.266 208.832 111.396 208.145 120.33 206.288C125.146 205.287 129.93 203.961 134.584 202.367C137.658 201.314 142.234 200.788 143.543 197.495C146.993 188.804 144.454 177.906 143.033 169.085C142.31 164.598 141.768 160.085 141.065 155.594C140.615 152.722 140.4 149.543 139.196 146.855C137.786 143.707 136.005 144.336 133.024 145.205C128.916 146.405 124.699 146.903 120.475 147.548C110.168 149.122 101.175 152.296 91.8076 156.794C82.5448 161.242 73.5598 165.633 65.2979 171.818C61.112 174.952 57.5049 178.354 54.1447 182.348C51.5488 185.434 47.6743 190.252 50.84 194.269ZM94.7724 250.895C94.8531 252.268 110.604 248.124 112.677 247.659C126.277 244.608 140.147 241.134 152.987 235.622C164.971 230.478 175.531 224.592 184.962 215.452C189.358 211.192 193.311 206.706 197.095 201.928C198.991 199.533 201.582 199.811 203.697 197.785C205.599 195.961 207.057 194.538 206.463 191.811C201.71 193.064 192.934 200.936 188.007 196.961C185.198 194.695 189.093 192.328 190.891 191.015C194.272 188.546 197.162 185.5 199.849 182.303C195.236 183.198 190.941 184.926 186.926 187.331C185.142 188.399 179.027 192.274 177.604 188.58C176.728 186.306 180.874 183.449 182.167 182.191C185.341 179.102 188.768 175.497 190.453 171.344C186.286 170.378 182.359 173.598 179.521 176.221C176.371 179.133 172.51 182.189 169.869 185.545C168.507 187.275 168.21 189.319 167.146 191.186C165.948 193.286 164.033 195.086 162.202 196.64C158.674 199.635 154.548 201.839 150.313 203.663C140.636 207.83 130.263 210.778 119.948 212.847C114.887 213.862 109.951 214.329 104.815 214.501C100.823 214.635 99.0565 215.829 97.5324 219.507C93.4079 229.459 94.1567 240.408 94.7724 250.895ZM213.229 175.061C215.536 177.221 218.536 178.576 220.948 180.652C223.071 182.479 225.52 184.428 227.889 185.905C230.418 187.482 232.308 186.376 234.585 184.949C237.259 183.276 240.332 182.597 243.086 181.099C252.606 175.918 264.254 163.221 262.476 151.563C261.723 146.622 259.168 141.76 254.53 139.518C250.317 137.483 244.192 136.353 239.685 138.055C237.143 139.015 235.324 141.134 233.695 143.217C231.796 145.646 231.068 145.263 229.134 142.921C225.672 138.73 219.964 135.054 214.321 135.142C211.517 135.186 208.731 135.778 206.205 136.942C205.862 137.1 205.672 137.577 205.328 137.739C204.906 137.938 204.213 137.525 203.919 137.71C203.18 138.178 202.441 139.641 202.015 140.384C200.303 143.362 197.22 149.203 200.327 151.711C200.329 151.712 200.188 155.104 200.231 155.491C200.45 157.514 201.15 159.185 202.051 161.035C204.757 166.595 208.753 170.875 213.229 175.061ZM208.627 222.099C210.813 222.779 213.168 215.927 211.071 214.833C209.071 213.79 206.647 221.484 208.627 222.099ZM242.966 213.907C243.723 216.495 244.043 219.432 245.895 221.539C247.59 219.527 247.757 215.815 246.113 213.747C245.174 212.567 242.138 211.079 242.966 213.907ZM173.001 168.559C173.013 168.624 170.37 169.888 171.66 171.271C173.421 173.159 173.179 169.484 173.001 168.559ZM162.078 147.465C162.109 150.082 167.649 149.45 167.609 146.818C167.561 143.579 162.046 144.691 162.078 147.465ZM168.692 125.593C168.143 123.197 158.507 119.864 158.769 124.04C158.901 126.133 169.854 130.687 168.692 125.593ZM267.479 206.848C268.56 208.147 270.094 208.659 271.389 209.656C272.747 210.7 273.717 212.056 274.903 213.282C278.16 216.649 282.08 219.416 285.593 222.509C292.053 228.195 298.24 234.308 305.402 239.13C318.2 247.746 333.041 252.459 347.774 256.586C348.995 256.928 352.51 258.308 353.718 257.28C355.02 256.171 354.358 252.271 354.298 250.796C354.054 244.75 353.349 238.632 353.425 232.595C353.457 230.115 354.183 226.59 352.889 224.321C351.444 221.787 347.411 221.045 344.916 220.092C337.332 217.193 330.027 212.304 323.328 207.775C315.093 202.208 306.776 196.549 298.302 191.352C289.999 186.26 280.841 182.851 271.579 179.943C271.15 180.845 275.57 183.746 276.075 184.153C278.498 186.104 281.134 188.126 282.932 190.7C284.206 192.523 285.511 196.648 281.995 196.754C280.291 196.805 277.771 195.157 276.226 194.623C273.673 193.743 271.043 193.124 268.373 192.722C270.668 195.249 278.449 199.79 277.034 203.993C275.66 208.072 267.715 203.312 264.98 203.312C265.429 204.734 266.556 205.738 267.479 206.848ZM361.339 218.233C366.427 220.022 371.642 221.04 376.893 222.194C381.898 223.296 386.525 224.126 391.652 223.481C398.73 222.591 406.563 219.659 407.46 211.616C408.524 202.086 401.794 193.329 396.015 186.492C388.982 178.174 381.084 170.737 372.525 164.004C363.976 157.277 354.748 151.346 345.08 146.339C337.725 142.53 329.418 140.217 321.642 137.359C320.162 136.815 316.07 134.904 314.686 136.488C313.568 137.768 315.09 139.902 315.6 141.091C316.594 143.409 316.731 145.742 316.987 148.231C318.134 159.346 319.514 170.458 320.149 181.621C320.326 184.732 320.638 187.986 320.456 191.1C320.356 192.824 319.459 195.02 320.056 196.704C321.205 199.94 326.465 202.082 329.253 203.527C334.244 206.115 339.529 208.046 344.571 210.522C350.108 213.24 355.5 216.178 361.339 218.233ZM290.776 146.011C289.379 145.819 287.287 145.439 286.042 146.343C284.419 147.523 284.845 149.165 286.344 150.021C287.528 150.697 290.3 150.882 291.47 150.268C293.463 149.223 293.126 146.334 290.776 146.011ZM283.041 171.749C284.17 173.628 288.295 174.861 287.935 171.353C287.627 168.35 280.963 168.287 283.041 171.749ZM284.573 118.796C282.758 119.499 279.466 120.101 278.928 122.434C278.427 124.607 280.486 124.463 281.971 123.865C283.193 123.374 288.635 118.759 284.573 118.796ZM0.322266 201.657C1.38181 197.533 0.57489 192.968 1.15958 188.745C1.72684 184.651 2.74762 180.889 4.21228 177.03C7.45557 168.488 11.1711 160.799 16.4282 153.303C26.3293 139.186 37.8165 126.751 51.6877 116.439C65.3819 106.26 80.5458 97.9867 96.6092 92.1887C113.643 86.0399 130.789 83.8998 148.752 82.7211C154.116 82.3697 159.475 81.9525 164.809 81.2748C168.708 80.7796 173.595 80.1697 177.449 81.3638C179.871 82.1144 181.223 84.2261 178.586 85.6118C176.715 86.5944 174.267 86.7118 172.201 86.9729C174.696 94.9001 178.756 102.854 185.19 108.313C191.471 113.642 199.877 115.469 207.804 116.82C212.103 117.553 216.916 118.119 221.282 117.803C224.042 117.604 226.195 116.326 227.309 119.169C228.082 121.144 228.448 123.311 229.466 120.329C230.671 116.803 231.263 116.826 235.011 115.824C242.677 113.777 251.465 111.908 258.152 107.479C265.09 102.885 267.503 95.4514 271.377 88.5301C272.335 86.8195 275.224 83.3569 273.748 81.3967C272.397 79.6042 268.007 79.7828 265.996 79.5958C263.874 79.3985 261.74 79.3901 259.611 79.3076C258.378 79.2598 255.897 79.7654 256.393 77.9232C257.142 75.1467 265.162 75.5026 267.154 75.4575C270.858 75.3743 274.613 75.46 278.298 75.8676C296.571 77.8884 315.008 81.625 332.69 86.608C366.997 96.2748 400.223 114.088 425.26 139.75C449.292 164.384 456.906 205.376 442.132 236.829C434.454 253.175 417.791 259.89 401.639 265.313C393.119 268.174 384.097 270.411 375.04 269.871C370.694 269.612 366.57 268.442 362.331 267.56C360.483 267.176 358.379 266.562 356.481 266.717C355.043 266.834 353.662 268.154 352.314 267.453C351.357 266.955 350.941 265.527 349.772 264.918C348.368 264.188 346.665 263.924 345.149 263.556C340.934 262.532 336.853 260.872 332.733 259.511C328.473 258.103 324.452 256.289 320.364 254.456C318.3 253.53 313.524 249.766 312.179 252.518C311.566 253.774 311.827 256.197 311.677 257.514C311.416 259.818 311.108 262.116 310.772 264.411C310.032 269.461 309.145 274.491 308.237 279.514C306.597 288.578 304.485 297.255 300.952 305.782C298.131 312.589 295.655 320.306 290.417 325.721C288.131 328.085 285.011 329.149 281.731 328.406C278.001 327.561 276.144 324.173 273.879 321.433C268.897 315.404 260.671 310.785 253.075 309.122C243.774 307.085 234.713 310.064 225.835 312.595C216.444 315.273 206.883 317.824 197.665 321.043C189.075 324.044 179.8 328.474 170.484 328.088C162.361 327.752 154.773 321.141 148.914 316.101C143.03 311.039 135.672 303.628 127.211 304.224C123.01 304.52 119.181 306.547 115.089 307.371C110.596 308.276 105.816 308.404 101.247 308.741C95.5761 309.16 82.8885 307.681 80.7907 300.859C80.4793 299.846 80.4774 297.762 81.8141 297.357C83.0435 296.985 83.6716 298.422 84.8364 298.357C87.2062 298.223 89.0579 294.091 90.3597 292.492C95.6136 286.034 102.821 281.217 108.716 275.383C115.373 268.797 121.057 260.816 126.073 252.945C123.805 252.355 121.358 253.334 119.164 253.799C116.497 254.364 113.898 255.047 111.27 255.77C108.374 256.568 105.436 257.116 102.496 257.724C100.303 258.177 97.3916 258.313 95.412 259.413C93.6838 260.374 92.7192 261.406 90.5735 261.684C88.3918 261.967 86.1518 261.729 83.9597 261.714C78.0313 261.674 72.1152 261.564 66.2147 260.937C45.3652 258.722 23.2643 249.903 10.7273 232.402C7.31729 227.641 4.57019 222.367 2.8342 216.771C1.47937 212.402 -0.856842 206.245 0.322266 201.657Z" fill="black"/>
<path fill-rule="evenodd" clip-rule="evenodd" d="M195.875 0.00454269C190.395 0.0820965 185.26 1.70685 180.155 3.55392C175.665 5.17803 170.878 6.68064 167.248 9.92239C160.718 15.7538 159.017 25.4092 157.948 33.67C156.616 43.9782 161.051 52.6268 164.784 61.9526C168.276 70.6748 174.684 77.7406 182.302 83.1248C186.292 85.9452 190.703 87.6475 195.317 89.1404C200.005 90.6566 204.544 92.6872 209.559 92.6795C217.175 92.6685 226.925 89.0512 230.17 81.5479C231.647 78.1316 230.208 77.5183 227.253 79.3751C222.965 82.0688 218.832 84.9758 213.821 86.1707C204.104 88.489 192.466 84.8976 183.945 80.159C175.428 75.4218 169.71 68.3056 165.888 59.4444C162.032 50.505 160.534 41.6962 162.021 32.0588C163.281 23.8918 165.788 16.4317 173.147 11.9982C189.035 2.42875 210.441 3.19976 224.57 15.6362C226.508 17.3411 228.424 19.0001 230.42 20.628C231.69 21.6627 233.185 22.9043 233 24.6938C232.842 26.2261 229.575 32.1345 233.51 30.3197C236.699 28.8481 238.432 25.9715 242.296 25.6154C246.408 25.236 251.313 28.3951 252.543 32.371C253.716 36.1647 251.624 41.355 248.347 43.531C246.317 44.8785 244.084 44.6704 241.78 44.6161C240.636 44.589 237.452 44.2173 236.695 45.4265C235.356 47.5651 240.081 49.8129 241.605 50.2859C245.316 51.437 249.701 50.0824 251.834 46.7702C254.002 43.403 255.486 39.5059 255.785 35.4945C256.071 31.651 255.198 27.7598 252.931 24.604C250.519 21.2478 245.603 17.4852 241.196 18.6511C239.283 19.1571 237.746 21.1334 235.869 21.5089C234.684 21.7455 235.183 21.9148 234.201 21.0365C233.578 20.4794 232.989 19.4512 232.414 18.7907C229.106 14.9931 225.835 10.9403 221.787 7.90082C214.528 2.45072 204.88 -0.123421 195.875 0.00454269ZM215.948 75.2953C215.089 73.2828 213.512 76.8729 213.046 77.4732C212.123 78.6607 209.952 79.5845 210.046 81.3361C210.201 84.2277 214.142 83.6913 215.456 82.1829C216.952 80.4656 216.795 77.2827 215.948 75.2953ZM187.947 61.6046C185.821 64.9181 188.412 68.4947 190.093 71.4274C191.701 74.2314 193.193 77.4012 195.065 80.0373C198.171 84.4141 204.929 79.6794 205.13 75.1811C205.283 71.7376 202.844 73.2366 201.278 74.5227C199.667 75.8473 198.903 76.1772 197.214 74.7304C193.816 71.8186 192.289 66.95 189.94 63.2636C189.474 62.5327 188.63 62.0931 187.947 61.6046ZM181.886 62.67C181.337 64.2724 182.488 68.5183 179.29 68.0938C177.523 67.8594 177.146 65.3242 176.218 64.2176C173.094 60.4979 174.052 67.5333 174.868 69.2941C176.667 73.1749 181.702 75.8489 184.2 70.9255C185.128 69.0941 185.125 66.7826 184.652 64.8138C184.396 63.7416 182.898 59.7109 181.886 62.67ZM210.399 55.0809C210.682 56.9505 212.44 60.6755 210.294 62.013C208.406 63.1904 205.118 60.6336 203.664 59.5661C202.154 58.4567 198.73 55.2744 198.596 59.2347C198.527 61.2534 200.548 63.6754 201.99 64.8384C205.067 67.3186 211.459 69.5433 213.726 64.875C214.961 62.332 214.286 58.7117 213.469 56.1491C212.807 54.0722 209.716 50.5649 210.399 55.0809ZM170.049 44.8448C168.797 46.2986 165.83 49.5559 167.443 51.6264C169.33 54.0464 172.395 49.6062 173.603 48.3704C174.692 47.2571 176.982 44.0869 176.006 42.4054C174.389 39.6229 171.149 43.5683 170.049 44.8448ZM189.727 38.5846C185.635 41.2506 191.015 43.1703 193.346 43.4089C196.167 43.6966 199.774 43.8876 202.365 42.5033C206.038 40.5411 204.814 37.5771 201.254 36.8675C197.604 36.1405 192.903 36.5153 189.727 38.5846ZM242.928 30.0977C239.918 30.6833 236.481 31.4453 235.456 34.7262C234.398 38.117 235.919 39.2423 238.992 38.4789C241.836 37.7725 246.084 37.0615 247.692 34.2835C249.613 30.9644 245.718 29.5554 242.928 30.0977Z" fill="black"/>
<path fill-rule="evenodd" clip-rule="evenodd" d="M408.515 102.956C409.525 106.218 414.637 108.381 417.186 110.363C426.102 117.299 434.814 124.521 442.875 132.438C447.058 136.546 450.225 141.516 453.853 146.086C454.738 147.201 456.306 149.7 458.043 149.465C459.947 149.208 460.333 145.928 460.272 144.495C460.064 139.609 455.602 134.891 452.419 131.526C448.84 127.743 445.013 124.057 441.104 120.612C436.801 116.82 432.131 113.561 427.373 110.37C422.7 107.236 418.22 103.616 413.36 100.778C411.071 99.4407 407.27 98.932 408.515 102.956ZM96.8529 71.9825C93.1313 72.0999 89.4998 73.3206 85.99 74.4537C78.2695 76.947 70.9163 80.4055 63.6655 84.0202C50.9535 90.3564 38.7202 98.0228 27.5068 106.739C25.1626 108.561 22.7595 110.037 20.2106 111.527C18.5792 112.481 16.2532 113.645 15.6247 115.59C14.0282 120.534 22.0863 115.572 23.2299 114.862L24.8384 113.865C48.6972 99.0777 72.5284 84.7106 99.5159 76.2306C100.954 75.7788 101.401 74.4965 100.646 73.2253C99.8288 71.8477 98.2356 71.9391 96.8529 71.9825ZM409.601 82.3292C409.774 83.8344 411.479 84.1768 412.629 84.66C416.919 86.4622 421.317 87.9992 425.596 89.8313C433.537 93.2315 440.831 98.1662 449.12 100.747C451.015 101.337 451.294 99.4256 450.787 98.1247C450.222 96.6726 448.525 95.6531 447.298 94.8133C443.759 92.3884 439.744 90.6452 435.814 88.961C431.917 87.2897 427.904 86.0258 423.909 84.6249C420.195 83.3227 415.885 80.8992 411.898 80.7202L411.723 80.7117C410.454 80.6476 409.4 80.5618 409.601 82.3292ZM90.0792 59.4618C93.8735 58.3945 90.2887 55.9925 88.0339 56.1613C85.5184 56.3498 83.0869 57.5374 80.7014 58.2538C73.4077 60.4437 66.6471 62.8387 59.8334 66.238C58.8172 66.7455 54.3405 69.1513 57.3017 70.2167C59.3541 70.9547 64.1471 67.7879 65.9091 67.0282C73.6523 63.6895 81.9724 61.7415 90.0792 59.4618Z" fill="black"/>
<path fill-rule="evenodd" clip-rule="evenodd" d="M241.332 67.2369C240.857 65.8453 234.991 50.6339 237.287 50.1752C239.719 49.6888 242.97 58.5144 243.676 60.1089C246.281 65.998 247.824 72.3168 249.033 78.6336C249.875 83.0319 250.615 87.5378 250.32 92.0346C250.093 95.4904 248.666 96.0135 246.314 98.1311C246.314 87.6344 244.719 77.1718 241.332 67.2369Z" fill="black"/>
</svg>
