<svg width="35" height="35" viewBox="0 0 35 35" fill="none" xmlns="http://www.w3.org/2000/svg">
<path d="M29.8799 5.11959C23.0537 -1.70653 11.9457 -1.70653 5.11959 5.11959C-1.70653 11.9457 -1.70653 23.0537 5.11959 29.8799C8.53265 33.2929 13.0159 35 17.4992 35C21.9824 35 26.4657 33.2929 29.8788 29.8799C36.706 23.0527 36.706 11.9457 29.8799 5.11959ZM32.005 12.6285C28.0601 12.9601 24.4905 14.3137 21.5196 16.4312C20.677 15.187 19.7939 14.0577 18.8933 13.0367C20.8313 10.1577 22.0547 6.74022 22.3698 2.9934C24.5485 3.7211 26.6003 4.93466 28.3315 6.66581C30.0637 8.39805 31.2773 10.4498 32.005 12.6285ZM20.2097 2.43532C19.9963 5.79367 18.9962 8.83905 17.3733 11.4226C13.9176 7.9877 10.4684 6.0366 8.51842 5.11083C11.1885 3.17396 14.34 2.18692 17.4992 2.18692C18.4074 2.18692 19.3135 2.27556 20.2097 2.43532ZM6.66034 6.67347C7.98989 7.21404 12.0606 9.0962 16.1029 13.2162C12.8934 17.1589 8.05554 19.6615 2.40577 20.0029C1.63212 15.2964 3.04046 10.2977 6.66034 6.67347ZM2.92228 22.1652C8.86531 21.6968 14.0303 18.9808 17.5539 14.804C18.3286 15.71 19.087 16.7058 19.8136 17.7946C15.8589 21.3062 13.2873 26.3202 12.8332 32.0761C10.5768 31.3582 8.45277 30.1184 6.66581 28.3315C4.87994 26.5456 3.64012 24.4216 2.92228 22.1652ZM14.9955 32.5926C15.3128 27.3532 17.4959 22.8229 20.9571 19.6308C22.7101 22.6861 24.1601 26.3946 24.983 30.8505C21.9146 32.5696 18.3834 33.1496 14.9955 32.5926ZM28.3326 28.3326C27.897 28.7681 27.4363 29.162 26.9647 29.5341C26.0368 25.0683 24.4949 21.3379 22.6664 18.2356C25.4316 16.2539 28.802 15.0283 32.563 14.7886C33.4144 19.5575 32.0093 24.6547 28.3326 28.3326Z" fill="black"/>
</svg>
