<svg width="97" height="100" viewBox="0 0 97 100" fill="none" xmlns="http://www.w3.org/2000/svg">
<path d="M76.0081 66.3474L75.6972 66.1573C75.239 67.181 74.7808 68.2049 74.3232 69.2285C75.0166 68.3254 75.7481 67.4479 76.0081 66.3474ZM77.0697 62.489C77.6933 61.2116 78.2582 59.8259 78.1747 58.2761C77.8066 59.6806 77.4381 61.0848 77.0697 62.489ZM14.4479 26.6092C14.6253 26.4096 14.808 26.214 14.9794 26.0089C18.5166 21.7846 22.451 17.9701 26.7458 14.5186C29.1658 12.574 32.0314 11.2386 34.3738 9.26234C36.9771 7.06606 39.5783 5.00552 42.781 3.78945C42.8055 3.77996 42.7839 3.64793 42.7839 3.43337C36.1617 3.98331 30.3511 6.51007 25.3522 10.7355C20.3234 14.9866 16.1874 19.9708 14.4479 26.6092ZM91.7931 37.8126C91.7094 28.974 88.8519 21.2266 82.4488 14.9849C76.7648 9.4444 70.3724 5.17148 62.1654 4.38972C76.8215 11.3278 86.6838 22.4326 91.7931 37.8126ZM63.8695 8.59218C64.7065 9.74583 65.9752 10.3389 67.0135 11.2234C72.9785 16.3048 77.024 22.6405 79.7098 29.9703C82.3579 37.1974 82.8656 44.6523 82.297 52.1972C81.9406 56.9237 80.7694 61.5358 79.0638 65.9865C78.9306 66.3339 78.5 66.7766 78.9999 67.0898C79.4167 67.3504 79.6172 66.8174 79.8737 66.5982C82.5673 64.2972 84.73 61.5323 86.4902 58.4945C88.1032 55.7114 89.4763 52.8746 89.2807 49.4079C88.4072 33.9179 82.0154 21.3974 69.5794 12.0419C67.7988 10.7022 65.926 9.48726 63.8695 8.59218ZM85.9437 66.5663C85.3184 66.5295 84.9603 66.7636 84.7147 67.0705C83.3747 68.7436 81.6441 69.8817 79.8651 71.0443C78.8409 71.7136 77.8057 72.372 76.7556 73.0102C75.052 74.0456 74.1414 75.7872 72.9423 77.2935C69.3755 81.7735 65.2731 85.6866 60.4066 88.7886C54.5983 92.4912 48.4435 94.902 41.447 95.2086C37.7059 95.3729 34.1811 95.0257 30.6034 93.9026C24.8262 92.0891 20.1681 88.6989 16.2018 84.3014C10.2676 77.7218 7.23573 69.7532 5.54997 61.1875C5.42256 60.5392 5.2287 59.9041 5.06561 59.263C4.6152 60.8647 4.68279 62.4237 4.65575 63.9797C4.54387 70.478 6.26587 76.5934 9.47746 82.0968C12.6062 87.4581 17.1599 91.5958 22.9256 94.2302C28.1384 96.612 33.5897 97.7671 39.3157 97.4688C45.6095 97.1409 51.5975 95.5265 57.3483 92.9856C67.1021 88.6764 75.5672 82.7008 81.8437 73.9312C83.4693 71.6601 84.8746 69.251 85.9437 66.5663ZM29.1293 17.7213C28.8195 17.8508 28.6383 17.8824 28.5149 17.9842C24.886 20.9838 21.6865 24.4132 18.6636 28.0033C16.3416 30.7616 14.3642 33.7842 12.5579 36.8948C11.33 39.0103 10.1519 41.1951 9.87898 43.7196C9.21572 49.852 9.33595 55.9473 10.5722 62.0101C12.335 70.6577 15.5768 78.5682 21.7805 85.0599C24.9386 88.3647 28.7036 90.7235 33.0352 92.0462C40.0509 94.189 46.626 92.3948 52.9692 89.3501C57.0733 87.3801 60.6804 84.6405 64.0427 81.6147C65.5743 80.2367 67.0449 78.7189 68.2549 76.732C66.0952 76.9785 64.2242 77.4569 62.3023 77.6596C55.762 78.3496 49.627 77.0263 43.8921 73.9763C36.0892 69.8271 30.857 63.3846 27.9066 55.1034C24.1471 44.5522 24.4192 33.8995 27.3555 23.2233C27.852 21.4181 28.5014 19.655 29.1293 17.7213ZM46.0346 8.19209C43.4155 8.62583 41.4019 9.44584 39.6402 10.871C37.8572 12.3129 36.7812 14.2514 35.6244 16.1978C34.0373 18.8675 32.9437 21.7532 32.1022 24.6456C31.3581 27.2014 30.847 29.895 30.545 32.6081C29.8291 39.031 29.7227 45.3673 31.5609 51.6536C33.4779 58.2114 36.6377 63.9622 41.8301 68.5109C50.2437 75.8813 60.6959 77.1307 70.5746 72.7004C71.2171 72.4125 71.8085 72.059 72.1795 71.4352C74.6019 67.3653 76.3256 62.9773 77.3985 58.4039C78.8515 52.2108 79.0672 45.9023 78.2317 39.5712C77.0352 30.5033 73.7661 22.3523 67.4775 15.5987C64.219 12.0997 60.6717 8.92583 55.7255 7.98444C54.25 7.70371 52.6054 7.14429 51.41 8.36956C50.1028 9.70959 48.8671 11.2211 47.9962 12.8674C44.2997 19.8566 43.5237 27.2186 45.7714 34.8199C46.6452 37.7753 48.5171 40.057 51.1319 41.7266C51.6289 42.0442 52.6531 42.2547 52.31 42.9821C52.0077 43.6238 51.0459 43.4408 50.3438 43.2395C50.0823 43.1644 49.8321 43.0264 49.5991 42.8814C46.6714 41.0588 44.2683 38.7187 42.9596 35.4869C40.1818 28.6271 40.4953 21.6859 42.6576 14.7367C43.358 12.4852 44.5111 10.4468 46.0346 8.19209ZM13.866 18.2888C13.472 18.2983 13.3287 18.6236 13.1746 18.8882C11.7201 21.3891 10.3904 23.9602 9.49644 26.713C9.19013 27.6555 8.35027 28.4643 8.58554 29.6257C9.13778 29.3373 9.38197 28.9415 9.40728 28.3867C9.45043 27.4381 9.93133 26.6388 10.319 25.8087C11.4934 23.2946 12.6646 20.779 13.8367 18.2638C15.5075 16.0727 17.1789 13.8816 18.8497 11.6907C17.7121 12.7092 16.6039 13.7398 15.7554 15.0128C15.0536 16.0652 14.034 16.9295 13.866 18.2888ZM0 63.0127C0.103257 58.2137 0.76134 53.4815 2.42466 49.0009C4.17111 44.2968 5.05699 39.4228 6.14391 34.5651C8.12103 25.7244 11.5147 17.5007 17.8775 10.8017C23.1974 5.20053 29.6367 1.57274 37.3104 0.438354C42.9113 -0.389709 48.4915 -0.0744781 53.9417 1.63976C54.5071 1.8175 55.0907 1.978 55.7013 1.87503C61.0117 0.980522 66.0601 1.92365 70.9497 4.02703C76.9201 6.5955 82.2038 10.1514 86.6007 14.9602C89.9753 18.6509 92.641 22.8281 94.206 27.5718C95.9855 32.9671 96.7655 38.5107 95.6683 44.2074C95.41 45.5462 95.5144 47.0364 95.1267 48.2744C94.6492 49.7985 94.4404 51.3749 93.9428 52.8708C93.0926 55.4281 92.7981 58.0944 92.215 60.7028C91.4813 63.9849 90.2385 67.0875 88.7745 70.094C86.7399 74.272 84.1746 78.1558 80.8729 81.3979C77.9337 84.2844 74.8973 87.0865 71.2364 89.2025C68.6205 90.7148 66.1176 92.4423 63.4004 93.8036C54.6256 98.1993 45.3817 100.508 35.5292 99.9055C27.9161 99.4399 20.9041 97.1093 14.7243 92.5703C6.09243 86.2302 1.35787 77.6458 0.275545 67.021C0.140075 65.6893 0.090026 64.349 0 63.0127Z" fill="#FF5678"/>
</svg>
