<svg width="446" height="331" viewBox="0 0 446 331" fill="none" xmlns="http://www.w3.org/2000/svg">
<path fill-rule="evenodd" clip-rule="evenodd" d="M404.386 312.906C406.896 314.198 409.242 314.197 411.71 315.202C414.161 316.2 414.799 320.336 416.895 320.83C407.181 321.852 397.615 324.017 387.784 322.94C388.635 319.471 387.106 315.921 389.154 312.666C394.629 307.486 398.188 309.718 404.386 312.906ZM363.369 74.4908C363.495 76.9298 363.676 77.8991 365.407 79.4725C366.763 80.7052 367.527 78.8674 367.655 81.275C367.73 82.6639 366.287 83.361 365.728 84.4835C362.943 90.0761 364.865 97.2994 366.234 102.871C369.008 114.167 375.786 126.449 371.01 137.931C370.529 139.089 370.142 141.599 369.212 142.485C367.986 141.837 367.09 142.121 366.525 143.335C366.187 143.716 365.848 144.096 365.509 144.477C363.363 146.461 361.079 147.199 358.23 146.144C352.487 144.018 351.537 137.348 351.507 132.096C351.473 126.308 352.706 120.247 354.024 114.608C354.659 111.893 355.636 108.741 353.817 106.18C352.098 103.761 349.976 105.124 348.284 104.044C346.483 102.895 349.077 94.4468 347.302 92.2066C344.204 88.2951 343.124 97.8639 343.075 99.8182C343.021 101.959 343.137 104.457 344.146 106.397C344.939 107.922 347.519 109.26 347.961 110.799C348.375 112.237 346.56 115.973 346.279 117.517C345.847 119.895 345.697 122.325 345.573 124.735C345.155 132.878 346.432 141.448 352.038 147.768C354.495 150.539 358.661 153.686 362.558 153.181C365.997 152.736 369.454 150.878 372.662 149.616C374.819 157.904 378.06 165.931 381.513 173.758C384.514 180.562 387.335 187.53 390.488 194.25C397.132 208.415 407.917 220.482 416.343 233.58C424.479 246.224 429.041 260.735 430.135 275.662C430.394 279.192 429.363 284.022 430.185 287.323C430.956 290.417 431.633 291.761 431.128 295.136C430.567 298.886 429.48 302.344 429.947 306.159C430.361 309.545 431.974 314.589 430.211 317.725C428.093 315.468 425.98 314.405 424.695 311.395C423.391 308.34 423.904 305.83 420.947 304.488C418.421 303.341 416.609 303.59 414.38 301.713C411.673 299.432 409.828 296.645 408.494 293.379C406.217 287.807 405.887 281.767 407.812 276.044C409.356 271.456 413.864 262.868 420.184 265.942C419.246 264.014 418.621 261.917 416.83 260.665C415.27 259.573 412.938 259.218 411.196 257.977C409.248 256.59 407.044 255.11 404.87 254.095C404.026 253.702 403.228 253.504 402.356 253.235C401.31 252.912 399.327 253.144 399.198 253.124C395.465 252.56 391.302 250.762 389.022 248.054C387.306 246.016 385.789 244.113 384.479 241.78C382.778 238.753 382.124 238.936 378.861 238.217C374.119 237.173 371.111 236.46 367.318 232.942C363.111 229.041 360.033 224.178 356.954 219.391C355.151 216.586 353.566 216.415 350.626 215.295C348.917 214.644 346.551 211.729 344.995 211.513C344.546 211.45 342.395 212.429 341.668 212.546C340.367 212.757 339.238 212.719 337.936 212.583C334.947 212.269 332.304 211.477 330.295 209.138C324.105 201.935 322.218 184.956 330.692 178.829C332.307 177.661 334.556 177.124 335.509 175.185C336.601 172.96 336.104 168.768 336.016 166.422C335.917 163.745 335.791 160.831 335.391 158.192C335.207 156.979 335.07 156.469 334.575 155.254C333.593 152.846 333.305 153.196 331.283 152.617C328.398 151.792 327.093 152.116 325.324 149.378C323.914 147.193 323.254 144.442 323.125 141.859C323.006 139.449 324.093 137.222 323.185 135.04C321.856 131.846 319.393 129.429 318.313 125.933C317.402 122.99 315.051 116.419 317.369 113.703C318.407 112.486 320.251 112.308 321.281 110.679C323.074 107.843 323.799 106.292 326.461 104.057C328.425 102.408 330.311 99.9503 332.679 98.9419C335.007 97.9501 337.205 99.5465 339.095 99.1088C341.155 98.631 340.614 93.8525 341.185 91.7005C341.956 88.7989 343.61 85.774 345.612 83.5098C346.281 82.7534 347.115 82.608 347.635 81.6025C348.341 80.2411 348.061 78.301 348.611 76.8123C349.267 75.0332 350.861 71.9706 352.642 70.9954C357.847 68.1463 359.41 75.488 363.369 74.4908ZM351.19 285.18C351.924 287.158 351.518 290.338 352.363 292.041C353.037 293.398 355.739 294.258 357.065 295.876C359.902 299.341 360.983 304.905 359.953 309.183C356.481 308.326 354.159 307.778 350.628 308.229C350.272 300.476 350.605 292.931 351.19 285.18ZM308.273 291.023C310.636 293.658 311.808 296.763 311.467 300.285C311.345 301.538 310.961 303.296 310.592 304.5C310.186 305.822 308.169 308.297 308.952 309.005C306.748 308.873 304.159 309.129 302.571 307.704C301.145 306.425 300.148 303.128 299.569 301.381C300.682 299.16 301.795 296.938 302.908 294.718C303.633 295.867 305.76 298.869 307.517 297.909C308.841 297.186 307.772 292.485 308.273 291.023ZM391.194 270.488C393.898 273 394.822 277.53 394.684 281.046C394.729 285.892 393.051 295.592 386.751 295.917C381.688 296.178 376.288 288.927 375.719 284.445C375.094 279.532 376.72 267.782 383.161 266.772C385.532 266.4 389.485 268.899 391.194 270.488ZM345.939 276.754C346.047 279.93 346.1 282.986 345.848 286.152C345.638 288.799 346.339 291.925 345.746 294.46C342.001 290.269 337.067 285.706 337.216 279.546C337.357 273.724 342.181 274.219 345.939 276.754ZM308.189 206.745L311.325 210.182C311.414 215.01 311.319 219.784 312.789 224.44C314.336 229.339 316.928 234.06 319.494 238.49C324.483 247.099 325.672 255.219 326.273 265.065C316.892 260.862 311.775 246.499 308.68 237.515C307.041 232.759 305.341 227.999 303.795 223.213C302.271 218.493 299.576 212.326 301.35 207.354C304.758 209.86 306.232 211.151 308.189 206.745ZM366.651 240.635C371.231 244.278 371.578 249.853 373.222 254.947C372.274 255.705 371.233 256.372 370.376 257.235C369.847 257.769 368.601 259.952 368.194 260.176C366.571 261.074 365.154 259.922 363.568 258.475C360.447 255.624 358.498 249.574 358.645 245.391C358.815 240.504 362.27 237.15 366.651 240.635ZM430.746 219.226C436.7 222.637 435.147 232.075 434.404 237.398C433.938 240.735 434.971 244.129 434.899 247.304C434.819 250.886 432.96 250.144 431.771 252.367C430.739 249.671 428.845 246.424 428.414 243.597L427.73 241.808C428.309 241.575 428.617 241.171 428.653 240.595C428.896 239.225 428.893 237.827 428.969 236.43C429.285 230.656 429.721 224.92 430.746 219.226ZM340.026 225.599C339.367 228.112 338.884 232.841 335.181 231.383C332.26 230.233 331.554 225.59 331.548 223.001C331.543 220.877 331.893 216.973 334.865 216.846C338.513 216.689 339.816 223.145 340.026 225.599ZM311.842 155.641C309.379 159.585 307.669 165.413 308.833 170.083C310.055 174.988 313.854 176.175 317.233 172.566C320.022 176.957 314.305 184.777 309.193 180.602C308.088 179.7 307.346 177.973 305.98 177.411C304.86 176.95 303.868 177.576 302.724 177.316C299.206 176.517 297.878 173.062 296.496 170.162C296.875 167.798 297.277 165.454 297.788 163.114C298.061 161.869 298.344 160.627 298.62 159.383C299.088 157.269 298.942 157.533 300.475 156.486C304.516 153.725 307.295 153.588 311.842 155.641ZM313.928 157.77L316.884 164.344C315.274 163.955 313.519 168.789 312.467 169.731C311.975 165.708 313.153 161.681 313.928 157.77ZM312.29 135.317C314.963 136.443 315.495 141.323 315.589 143.684C314.854 146.169 314.168 149.348 311.062 147.598C308.989 146.429 308.101 142.582 308.03 140.48C307.941 137.845 308.931 133.902 312.29 135.317Z" fill="#FF5678"/>
<path fill-rule="evenodd" clip-rule="evenodd" d="M292.268 78.232C291.167 78.7269 293.269 82.4255 293.595 83.104C294.448 84.8752 295.489 88.5351 297.509 87.5276C295.762 84.4292 294.015 81.3304 292.268 78.232ZM33.7696 292.824C32.297 292.171 30.3275 297.788 30.0651 298.929C29.3333 302.109 29.9457 304.245 32.4908 306.3C31.4373 301.756 32.6994 297.231 33.7696 292.824ZM373.695 52.2653C371.863 49.8881 369.218 45.4743 365.518 47.8109C364.056 48.7342 362.932 51.6935 362.031 53.1392C360.615 55.4087 359.246 57.5936 358.169 60.0369C359.998 59.285 361.077 57.6499 362.712 56.756C363.83 56.1455 364.849 56.0867 365.926 55.6417C368.306 54.6587 371.566 53.6948 373.695 52.2653ZM75.1101 286.49C76.1009 290.369 77.0173 294.236 77.784 298.164C78.3024 300.822 80.0447 304.577 79.1356 307.178C81.4909 306.861 83.8461 306.545 86.2013 306.228C84.4541 302.252 83.5347 298.009 83.0158 293.714C82.6981 291.085 83.1054 290.336 81.1247 288.873C79.5909 287.74 76.8906 287.196 75.1101 286.49ZM62.0831 138.049C66.6115 142.581 70.5719 147.748 75.3842 151.971C77.8848 154.166 80.4481 156.299 83.0143 158.416C85.1904 160.211 88.651 164.167 91.483 164.716C91.8331 163.271 92.6609 160.902 92.4391 159.419C93.2655 158.564 93.009 157.94 91.6696 157.545C90.8501 156.915 90.0399 156.275 89.2375 155.623C86.0897 152.996 83.1108 150.141 80.1279 147.331C77.1627 144.538 74.4198 141.615 71.8457 138.459C70.4897 136.797 69.6966 135.13 67.4726 134.642C64.8305 134.062 63.9513 136.122 62.0831 138.049ZM152.586 306.35C152.458 308.813 158.516 310.322 160.356 310.47C165.331 310.869 168.561 308.688 170.273 304.385C173.837 295.431 179.543 287.542 181.93 278.126C182.638 275.332 183.251 274.061 180.728 272.637C179.693 272.054 176.997 270.751 175.871 271.494C174.8 272.202 173.922 275.385 173.233 276.542C172.139 278.379 170.895 280.127 169.707 281.905C164.151 290.223 158.552 298.323 152.586 306.35ZM80.7002 183.032L103.956 196.33C104.926 192.982 105.372 189.491 106.281 186.117C106.928 183.719 108.593 180.331 108.488 178.225C108.33 175.082 105.896 170.909 104.835 167.913C103.512 164.179 102.189 160.444 100.866 156.71C99.075 158.423 97.0125 159.619 96.9905 161.851C96.9782 163.127 97.8286 163.923 97.3356 165.368C96.9895 166.382 95.5179 167.728 94.8071 168.481C92.7309 170.684 92.796 170.795 90.6141 168.735C87.3096 173.501 84.0047 178.267 80.7002 183.032ZM106.285 245.38C106.618 242.176 107.045 239.105 107.766 235.961C108.209 234.03 110.08 230.064 109.465 228.245C109.012 226.908 106.324 225.746 105.277 225.018C102.247 222.914 99.2889 220.699 96.2899 218.552C93.6601 216.668 90.9911 214.83 88.4106 212.879C86.0207 211.073 84.2167 208.826 81.3244 208.051C78.7939 207.373 75.583 207.816 72.9619 207.729C69.4445 207.612 65.8727 207.573 62.3588 207.745C50.566 208.322 37.355 207.497 26.0097 210.786C20.6477 212.341 17.191 213.256 14.1934 218.335C10.7269 224.209 7.76516 230.313 5.24349 236.658C4.87535 237.584 4.04311 238.921 4.07405 239.933C4.13564 241.866 4.82737 241.421 6.6813 242.523C8.68454 243.714 10.6481 245.128 12.5618 246.47C15.8432 248.77 19.9173 251.171 23.3216 252.965C27.4176 255.122 31.5441 257.058 35.7106 259.231C38.3508 260.608 41.0834 261.734 43.6731 263.247C46.4846 264.89 49.6324 265.358 52.6632 266.642C62.0479 270.615 71.1305 274.287 80.3399 278.821C89.329 283.245 98.4214 286.984 107.619 290.887C119.505 295.931 131.275 300.597 143.671 304.085C144.579 304.34 146.487 305.241 147.384 305.2C149.3 305.112 149.735 303.711 150.886 302.133C153.149 299.031 155.328 295.87 157.492 292.7C162.187 285.822 166.777 278.868 171.831 272.245C157.51 268.249 144.23 260.876 131.64 253.309C131.104 254.816 130.677 258.153 128.959 258.657C126.834 259.28 125.291 256.337 124.339 254.983C123.437 257.227 121.895 264.796 119.011 264.631C115.025 264.402 115.729 258.129 115.233 255.64C113.035 258.56 110.489 261.918 107.504 257.427C105.434 254.314 105.664 248.851 106.285 245.38ZM272.222 209.608C270.376 209.03 268.541 208.517 266.734 207.871C266.26 206.863 265.471 206.558 264.369 206.954C263.466 207.035 262.588 206.923 261.735 206.618C257.962 205.974 253.782 205.136 250.177 204.049C246.967 203.08 243.94 202.224 240.678 201.496C238.741 201.064 230.113 198.623 228.837 200.06C228.445 200.502 229.12 205.861 229.025 206.816C228.856 208.514 228.772 211.31 227.697 212.724C227.284 213.266 225.713 213.867 225.145 214.29C223.3 215.662 221.595 217.367 219.759 218.79C215.752 221.896 211.849 225.119 207.759 228.123C204.87 230.246 201.562 231.298 198.352 232.84C200.635 233.249 205.105 231.051 207.41 230.369C210.396 229.486 213.326 228.505 216.379 227.696C222.641 226.038 229.056 224.166 235.419 222.401C239.328 221.317 243.456 220.188 247.245 218.752C248.925 218.115 250.245 216.635 251.355 218.142C252.24 219.345 251.169 220.927 250.488 221.819C246.515 227.018 235.726 228.283 229.952 230.44C223.435 232.873 217.005 235.437 210.295 237.146C202.458 239.143 193.952 240.671 186.649 244.178C180.59 247.087 173.727 248.214 167.285 249.922C161.236 251.525 154.062 251.846 148.345 254.568C150.815 256.519 154.469 257.536 157.347 258.847C160.871 260.453 164.431 261.917 167.916 263.618C169.4 264.342 170.952 265.418 172.453 266.02C174.358 266.784 174.114 266.381 176.082 266.226C179.145 265.985 183.278 265.434 185.766 267.665C188.768 270.355 186.866 273.302 187.307 276.593C187.609 278.849 187.763 278.488 190.268 278.832C192.575 279.149 194.878 279.519 197.153 280.012C199.962 280.621 202.837 281.642 205.572 282.522C209.814 283.887 210.275 285.494 214.697 283.732C227.29 278.713 240.314 274.587 252.987 269.838C258.824 267.651 264.687 263.432 270.181 260.262C277.231 256.195 283.605 251.795 288.378 245.024C290.554 241.937 292.822 236.724 292.365 232.893C291.956 229.466 289.421 225.657 287.787 222.711C285.7 218.949 283.863 217.489 280.67 214.99C278.45 213.253 275.021 209.585 272.222 209.608ZM131.98 238.725C132.175 240.617 131.07 248.414 132.165 249.614C134.037 251.665 138.63 249.271 140.407 248.66C146.18 246.675 152.89 247.11 158.768 245.538C164.471 244.014 170.049 242.038 175.783 240.485C178.86 239.652 181.78 238.346 184.805 237.353C188.174 236.248 191.934 235.643 195.058 233.981C194.671 233.02 181.155 235.331 179.619 235.456C174.283 235.89 169.26 235.067 164.001 234.1C152.402 231.966 141.472 226.907 130.023 223.625C130.559 228.906 145.419 229.957 143.649 236.085C143.155 237.793 136.507 240.585 134.309 239.513C129.842 237.335 135.306 234.27 137.533 233.506C134.143 231.563 130.9 229.455 127.807 227.061C124.495 224.497 123.07 220.901 121.295 217.19C117.584 209.432 108.804 204.919 101.983 200.089C94.6083 194.866 86.7555 190.427 79.3848 185.216C78.0694 184.286 77.455 184.712 76.9929 183.014C76.4984 181.196 78.3151 178.884 79.1968 177.498C81.5144 173.85 84.2137 170.399 87.2754 167.346C83.3271 164.659 79.0622 162.44 75.3597 159.399C71.6068 156.316 68.5011 152.552 65.1903 149.022C59.9012 160.531 52.4885 171.205 46.6672 182.492C44.3678 186.95 43.1523 193.692 46.6491 198.012C50.3291 202.559 57.1911 200.789 62.3857 201.03C67.8682 201.284 72.8694 201.905 78.277 203.46C80.7232 204.164 82.9502 203.956 85.3015 205.086C88.0591 206.411 90.7712 208.112 93.3947 209.683C98.5541 212.771 103.374 216.637 108.246 220.161C110.245 221.606 121.081 230.174 112.51 228.851C112.51 236.868 111.105 245.079 110.368 253.058C112.401 250.63 113.85 248.164 115.08 245.247C115.811 243.512 115.821 239.085 118.258 240.134C121.925 241.713 119.069 253.312 119.069 256.449C119.977 254.694 120.614 252.803 121.268 250.943C121.763 249.533 122.382 245.537 123.416 244.592C126.877 241.428 127.363 250.056 127.363 251.857C128.484 248.676 128.69 245.282 128.802 241.921C128.846 240.595 128.519 238.532 128.854 237.249C129.411 235.112 129.345 235.251 131.584 234.347C131.716 235.806 131.848 237.266 131.98 238.725ZM238.9 306.385C239.174 309.097 240.224 311.061 238.44 313.501C241.888 313.254 245.282 312.951 248.735 313.039C251.508 313.109 255.654 313.743 258.241 312.555C259.295 312.072 259.653 312.905 260.195 311.98C260.71 311.102 259.501 308.187 259.356 307.464C258.658 303.994 258.319 300.435 257.685 296.943C257.25 294.543 255.973 289.824 257.579 287.556C259.941 284.219 260.982 288.92 261.597 291.007C263.624 297.883 263.507 304.413 263.507 311.477C266.561 311.477 270.572 310.144 273.517 309.34C277.578 308.23 281.916 307.089 285.851 305.64C289.563 304.274 292.832 302.28 295.179 299.07C296.934 296.67 300.826 290.746 299.859 288.092C298.674 284.838 293.022 282.6 290.003 282.242C286.087 281.777 282.073 282.564 278.066 282.895C273.776 283.249 269.614 284.204 265.369 284.663C261.247 285.109 255.715 286.484 251.71 285.454C251.606 287.101 252.984 289.316 253.463 290.993C254.092 293.192 254.654 295.41 255.164 297.639C255.711 300.025 259.096 308.603 256.018 310.318C252.404 312.331 250.68 303.711 250.23 301.61C249.157 296.6 248.234 291.594 249.358 286.558C244.746 285.727 239.184 286.961 234.427 287.289C236.199 293.531 237.342 300.068 238.9 306.385ZM40.2527 309.098C41.8564 309.812 44.0604 309.429 45.8037 309.566C48.528 309.78 51.2803 310.272 54.0227 310.185C58.2074 310.051 62.5942 309.522 66.7823 309.043C64.3933 304.735 62.9438 300.655 62.6456 295.717C62.5384 293.944 61.597 282.943 64.8701 283.413C66.4494 283.64 66.1141 293.034 66.4206 294.764C66.866 297.275 67.4408 299.845 68.1403 302.302C68.648 304.085 70.3751 306.754 69.9326 308.682C72.044 308.34 74.1559 307.998 76.2678 307.656C74.6259 304.382 73.4265 301.448 72.8116 297.796C72.5145 296.034 72.7039 293.841 72.1277 292.167C71.7645 291.112 70.9362 290.12 70.8255 289.235C70.6978 288.215 71.8159 285.707 71.4022 284.8C70.9959 283.908 68.1668 283.084 67.1754 282.593C64.4433 281.239 62.8419 280.896 59.7798 281.675C53.8734 283.176 44.5675 284.241 40.1626 288.289C35.7987 292.3 34.2106 305.829 40.2527 309.098ZM298.205 113.577C299.84 113.392 301.459 113.278 303.102 113.193C300.701 109.814 298.52 106.283 296.529 102.647C295.553 100.866 294.632 99.057 293.75 97.228C292.737 95.1293 292.765 93.7591 290.565 93.342C287.518 92.7648 283.444 93.9182 280.31 93.787C277.888 93.6851 272.451 91.4068 270.501 92.2326C272.28 95.8778 270.852 101.549 270.922 105.473C270.991 109.375 270.506 113.147 269.82 116.995C273.974 116.995 279.175 115.561 283.369 114.92C288.252 114.174 293.23 114.135 298.205 113.577ZM232.25 313.893C233.85 313.688 235.371 313.624 236.987 313.624C233.347 307.724 230.599 301.125 230.568 294.094C230.564 293.175 231.67 287.889 231.304 287.45C230.591 286.595 227.632 287.27 226.822 287.351C223.507 287.682 219.822 287.657 216.701 288.851C214.548 289.676 214.524 289.178 213.668 291.712C213.161 293.211 212.797 294.923 212.787 296.5C212.767 299.685 213.782 303.408 215.095 306.276C216.346 309.006 218.321 311.934 221.038 313.4C224.168 315.091 228.579 314.085 232.25 313.893ZM265.344 94.6828C264.714 92.332 264.986 92.8627 262.893 92.5709C262.453 92.5097 257.659 92.6091 257.384 92.8901C257.067 93.2142 257.188 98.0005 257.146 98.5483C257.004 100.426 256.794 102.298 256.59 104.17C255.76 111.768 254.185 119.123 253.004 126.658C255.922 124.847 260.138 127.316 262.631 125.356C264.6 123.808 264.305 118.852 264.452 116.666C264.943 109.348 265.111 102.012 265.344 94.6828ZM370.692 85.8102C370.429 86.2317 370.167 86.6532 369.905 87.0747C370.923 87.7278 376.887 81.0841 378.213 79.8955C379.98 78.3128 382.775 76.1994 383.571 73.8853C384.497 71.1962 383.587 66.9508 383.362 64.1702C383.202 62.1802 383.543 59.4279 381.92 58.0376C380.427 56.7584 376.749 56.7927 374.98 57.0663C369.674 57.8878 366.482 62.2516 363.803 66.4099C366.523 66.0755 376.112 61.698 377.226 64.0654C378.844 67.505 368.773 70.5803 367.778 73.5984C369.839 74.3264 374.386 71.5027 373.107 76.2009C372.888 76.8583 372.508 77.4027 371.965 77.834C371.024 78.1674 370.801 78.7955 371.296 79.7188C370.875 81.559 370.961 83.8873 370.692 85.8102ZM431.771 252.368C431.799 253.483 431.902 254.549 432.813 255.337C434.835 248.935 435.467 242.529 436.304 235.87C437.142 229.211 438.034 222.385 438.167 215.731C438.316 208.274 437.611 200.162 436.405 192.794C435.462 187.034 434.731 179.946 431.297 175.044C433.247 187.748 432.641 199.793 431.326 212.542C430.628 219.311 429.642 226.029 429.191 232.827C429.071 234.623 429.032 236.44 428.877 238.232C428.785 239.288 427.739 241.289 427.73 241.808C427.678 244.686 430.76 249.725 431.771 252.368ZM328.008 242.473C329.629 246.205 331.474 249.881 332.446 253.85C333.473 258.04 333.031 261.943 333.195 266.189C333.468 273.234 332.903 280.238 333.002 287.293C333.086 293.306 332.856 299.169 332.916 305.119C332.954 308.882 332.748 312.632 332.761 316.394C332.761 316.382 332.91 319.77 332.651 319.942C331.49 320.713 330.22 319.618 329.864 318.563L326.421 322.459C328.226 322.005 330.445 321.058 332.301 320.974C333.011 320.713 333.719 320.705 334.424 320.952C335.123 321.375 335.642 321.965 335.979 322.721C340.841 323.757 343.758 319.43 344.632 315.561C346.526 307.166 345.843 298.879 345.706 290.404C345.408 271.993 348.333 253.692 348.057 235.28C348.003 231.717 347.867 228.196 348.403 224.64C349.396 218.033 350.864 224.081 351.1 227.199C351.807 236.568 353.04 246.235 352.362 255.662C351.752 264.156 351.808 272.729 351.385 281.248C350.936 290.303 350.211 299.167 350.628 308.229C353.06 307.918 360.881 307.455 361.696 310.871C362.406 313.85 359.548 312.748 358.063 312.622C355.655 312.418 353.303 312.983 350.672 312.511C350.866 316.518 351.418 321.893 347.837 324.598C346.076 325.929 343.159 327.131 341.101 327.916C339.084 328.685 335.667 330.39 333.566 330.296C332.08 330.23 331.507 329.43 329.876 329.557C327.455 329.748 325.36 331.367 322.794 330.029C317.928 327.493 320.32 320.116 323.393 317.16C324.185 316.397 325.075 315.563 326.138 315.192C326.643 315.015 328.757 315.228 329.001 314.964C329.901 313.987 328.778 308.274 328.658 307.189C328.027 301.502 327.339 295.693 327.08 289.98C326.837 284.609 326.566 279.227 326.381 273.854C326.341 272.684 326.86 270.278 326.37 269.255C325.555 267.556 321.979 266.474 320.427 265.682C321.81 279.224 323.841 293.779 318.837 306.678C317.843 309.239 316.728 312.895 314.209 314.32C311.834 315.663 306.241 315.474 303.396 315.633C300.336 315.805 297.341 315.09 295.655 312.217C294.329 309.956 295.124 307.244 297.847 306.258C299.478 305.668 299.796 306.048 301.224 306.749C301.534 307.253 301.751 307.794 301.877 308.372H302.975C304.464 309.036 310.412 309.779 312.047 308.719C313.943 307.493 314.355 304.176 315.163 302.206C316.664 298.545 317.062 295.573 317.607 291.66C318.459 285.535 317.596 278.432 317.612 272.051C317.616 270.253 317.624 268.456 317.627 266.659C317.63 263.944 317.866 263.961 316.318 262.007C313.983 259.061 311.322 256.052 308.824 253.228C310.177 261.477 309.623 270.161 309.085 278.379C308.784 282.996 308.159 287.698 307.873 292.253C307.787 293.622 308.77 297.397 307.181 298.002C305.568 298.616 303.56 295.752 302.908 294.718C299.352 301.814 295.108 308.658 287.771 312.329C283.998 314.217 280.07 315.068 275.953 315.809C272.139 316.495 268.614 317.746 264.854 318.337C257.071 319.558 249.903 319.731 242.071 319.464C234.682 319.212 227.607 320.577 220.242 318.859C217.367 318.189 214.463 316.957 212.498 314.757C211.426 313.556 210.951 311.666 209.87 310.559C209.626 309.127 208.784 308.685 207.341 309.233C206.436 309.274 205.533 309.244 204.635 309.143C197.247 308.756 189.038 309.188 181.879 307.078C179.162 306.277 176.129 304.958 177.485 301.557C178.669 298.585 181.939 299.488 184.619 299.747C192.407 300.502 200.072 301.878 207.971 302.571C207.717 298.443 207.936 294.233 209.554 290.371C204.074 289.684 198.393 288.646 193.179 286.897C191.569 286.356 189.966 285.795 188.368 285.217C185.736 284.265 186.283 284.019 184.758 285.68C182.842 287.768 181.669 292.123 180.281 294.645C178.718 297.484 177.219 300.29 175.903 303.253C174.657 306.057 173.728 309.812 171.829 312.229C167.654 317.544 158.009 318.005 152.333 315.917C149.553 314.894 148.549 314.733 146.864 312.242C145.018 309.512 144.56 309.352 141.159 308.982C135.017 308.313 129.221 306.771 123.468 304.642C117.39 302.394 111.148 300.641 105.088 298.213C99.4142 295.94 93.9308 293.654 88.0606 291.88C87.364 296.307 90.2504 301.3 90.2504 305.865C93.666 305.523 96.851 305.223 100.237 304.68C101.444 304.486 109.05 302.78 109.792 303.787C112.886 307.985 98.8101 309.96 96.6101 310.514C89.5601 312.294 82.3711 313.947 75.2765 315.322C68.0351 316.725 60.9758 318.123 53.6247 318.375C41.1857 318.802 24.0285 318.083 24.6223 301.74C24.8553 295.337 27.4935 288.387 32.5418 284.211C35.6827 281.612 39.5996 280.183 43.4396 279.008C44.8583 278.573 52.3323 277.558 52.5594 276.998C50.4534 275.489 46.8537 275.096 44.3551 273.932C41.9729 272.823 39.4591 272.41 37.0206 271.292C32.1482 269.058 27.4421 266.327 22.9368 263.565C19.3538 261.368 15.7311 258.942 12.4325 256.331C9.81148 254.256 7.2996 252.261 5.20433 249.889C4.10774 248.648 2.16667 247.549 1.28842 246.48C-1.79574 242.727 1.45682 235.258 2.77029 230.889C4.68883 224.502 7.24918 217.705 11.0251 212.172C14.4974 207.084 18.3688 203.656 24.5973 202.464C30.3461 201.364 36.1267 201.015 42.0062 200.707C41.0183 196.948 39.6275 194.296 39.9805 190.174C40.3134 186.286 42.2765 182.423 43.8171 178.882C46.6814 172.3 49.3837 165.857 53.3011 159.797C55.4542 156.467 57.8725 153.305 60.2229 150.114C60.6018 149.6 62.9575 147.246 62.8674 146.583C62.7778 145.924 60.4123 143.918 60.05 143.458C57.6175 140.37 55.9359 137.045 58.7924 133.74C60.2816 132.017 64.6601 128.537 66.7676 130.726C69.0465 126.122 73.0324 122.982 76.1357 119.065C80.0046 114.18 83.6987 109.221 87.3204 104.105C90.9264 99.0105 93.872 93.5378 98.652 89.4324C103.979 84.8576 108.993 85.2531 115.536 87.2089C115.909 84.6852 116.429 85.0211 118.869 84.1786C120.717 83.5407 122.513 82.7838 124.329 82.0637C126.26 81.2976 128.214 80.8628 130.188 80.2607C132.818 79.4588 133.213 79.7207 133.64 76.3061C134.157 72.1802 132.391 67.8178 131.253 63.9313C130.691 62.0137 130.3 59.6267 129.035 58.3367C127.891 57.1701 125.863 56.6389 124.612 55.349C113.831 44.2357 113.661 20.5072 125.145 10.1787C127.377 8.17108 129.218 5.47024 131.996 4.11467C135.046 2.62595 139.07 1.42215 142.43 0.720626C149.355 -0.724524 157.121 -0.265816 162.596 4.60227C165.295 7.00302 166.942 10.8191 167.862 14.2278C168.741 17.4838 168.553 22.9873 165.22 17.9552C163.118 14.7815 161.292 11.5446 157.735 9.97458C154.556 8.57202 150.674 7.81469 147.21 8.11234C139.047 8.81337 132.432 11.2102 126.782 17.2517C120.534 23.9316 120.217 34.5965 121.563 43.0907C122.75 40.5783 123.554 36.6002 126.881 36.1205C129.654 35.7205 134.025 39.2609 132.537 42.3088C125.784 40.5876 123.809 50.7986 129.648 51.4135C131.416 51.5995 133.655 48.4527 135.283 49.1856C138.327 50.5553 134.247 55.2756 133.443 56.8299C133.015 57.0928 132.588 57.3556 132.161 57.619C132.582 58.5971 133.007 59.5738 133.436 60.5485C133.956 61.7915 134.452 63.0374 134.909 64.3053C136.022 67.3909 137.176 70.5725 137.846 73.7869C138.528 77.0551 138.882 80.8717 137.271 83.9421C135.5 87.3171 133.832 86.9019 132.472 83.6915C128.911 85.9361 125.33 88.3295 121.144 89.215C125.534 96.5798 131.216 102.911 139.761 105.228C147.003 107.191 156.119 107.119 163.029 103.871C170.199 100.501 174.145 92.6228 173.291 84.7851C173.015 82.2468 171.537 73.43 175.052 79.8079C176.979 83.3057 177.12 88.9796 176.681 92.8152C174.579 111.163 155.981 118.027 139.944 113.61C131.717 111.344 125.788 105.278 121.374 98.1381C120.345 96.4731 119.403 94.7548 118.483 93.0272C118.116 92.3369 117.792 91.373 117.301 90.7674C115.379 88.3946 117.268 89.7168 115.227 89.4197C112.068 88.9605 107.098 91.3793 104.752 93.2959C98.3886 98.4954 94.8639 106.813 89.9796 113.366C84.7796 120.342 78.1756 126.551 71.551 132.117C79.0446 139.793 86.5376 147.468 94.0312 155.143C95.5791 153.429 98.5218 149.513 98.9335 147.222C99.1749 145.879 98.0915 141.459 101.423 143.426C103.673 144.755 104.526 150.44 105.228 152.766C106.312 156.358 108.137 159.741 109.316 163.296C111.505 169.892 114.201 176.43 116.442 183.073C117.354 185.775 119.953 189.127 117.456 191.414C113.66 194.889 112.532 188.048 111.527 185.434C110.127 187.38 110.309 190.535 109.587 192.805C109.146 194.191 107.805 196.349 107.849 197.715C107.925 200.051 110.045 200.746 111.956 202.051C115.511 204.479 119.158 206.849 122.414 209.678C123.773 210.857 125.023 212.051 126.014 213.568C126.879 214.894 127.14 217.881 128.096 218.803C129.348 220.009 133.973 219.168 136.415 219.431C140.494 219.869 144.627 221.32 148.587 222.362C155.593 224.206 162.799 226.861 170.137 227.846C177.343 228.813 184.105 228.333 191.288 227.044C195.211 226.34 199.424 225.499 203.004 223.613C207.128 221.44 210.784 217.964 214.636 215.339C216.36 214.164 218.123 213.053 219.886 211.94C222.242 210.452 221.626 210.774 221.779 208.409C221.957 205.672 223.099 200.446 221.271 198.01C220.508 196.993 218.165 196.249 217.062 195.51C215.459 194.433 214.021 193.183 212.303 192.317C210.427 191.371 210.372 192.12 209.501 189.801C208.71 187.695 208.188 185.489 207.462 183.361C204.14 173.627 203.282 163.742 201.905 153.578C201.266 148.857 199.697 142.434 201.474 137.835C203.945 131.439 206.013 140.384 206.534 142.676C208.893 138.636 210.249 134.142 212.703 130.152C214.134 127.826 214.834 126.638 215.64 124.089C215.967 123.057 216.097 122.2 216.788 121.343C218.248 119.529 218.464 120.563 219.982 120.518C224.759 120.378 229.453 120.501 234.234 120.722C236.876 120.845 239.519 120.909 242.18 120.9C243.476 120.895 244.788 120.832 246.083 120.906C246.781 120.899 247.476 120.951 248.167 121.062C249.594 121.728 250.138 121.154 249.801 119.34C251.043 116.742 250.96 112.597 251.4 109.762C251.842 106.909 252.253 104.051 252.623 101.187C252.82 99.6567 254.48 93.8805 253.599 92.6228C252.726 91.3759 248.178 91.6555 246.832 91.4317C237.885 89.9445 229.562 86.2577 221.194 83.2372C217.074 81.7504 213.164 79.7428 209.212 77.9187C207.155 76.969 205.211 75.0132 203.043 74.4042C200.307 73.6356 196.674 74.8644 193.947 75.327C188.751 76.2087 183.738 76.9807 178.466 77.2676C176.603 77.3689 173.06 77.8913 171.379 76.6111C168.003 74.04 171.847 72.5366 174.053 72.212C183.814 70.7766 193.544 69.9518 203.378 69.3526C203.84 69.3246 205.529 68.9815 206.091 69.1587C207.371 69.5631 206.855 70.0321 207.622 70.4491C209.044 71.2217 210.666 71.7905 212.47 72.2698C217.621 73.6376 222.807 75.9326 227.975 77.7361C237.273 80.9808 248.383 86.1544 257.682 85.2448C259.977 85.0206 261.864 84.7337 264.264 84.9662C267.074 85.2389 268.714 86.6802 270.873 87.0992C273.765 87.6602 277.902 87.2387 280.947 87.3464C283.85 87.4492 286.755 87.5839 289.659 87.5839C287.109 82.4553 285.555 77.6401 284.122 72.1322C283.34 69.1283 282.164 66.4001 282.673 63.2366C282.914 61.7435 283.511 60.3404 284.161 58.9917C285.143 56.9557 285.423 57.3816 285.771 55.1267C286.251 52.0235 285.563 48.7513 285.94 45.6388C286.327 42.4445 288.741 39.5972 289.009 36.5434C289.153 34.9186 288.244 33.5924 288.516 31.8398C288.759 30.2723 289.688 28.6289 290.521 27.309C292.463 24.2337 294.827 22.4899 298.108 21.2372C300.745 20.2302 304.112 19.3064 306.777 20.9371C309.496 22.6006 309.299 25.9486 310.602 28.3914C313.403 33.6443 319.866 38.3386 325.018 41.0213C329.751 43.4857 334.85 45.0425 339.925 46.6497C343.013 47.6278 346.189 48.3254 349.224 49.4431C351.409 50.2479 354.972 52.1997 357.197 51.014C359.136 49.9806 361.398 46.8269 363.317 45.3627C365.562 43.6497 368.557 41.9779 371.384 43.4701C374.211 44.9617 373.979 50.4603 376.178 51.4943C376.944 51.8546 379.22 50.7991 380.264 50.9656C381.951 51.2338 383.113 52.278 384.125 53.5636C387.902 58.3675 389.072 65.9874 389.237 71.9095C389.32 74.8673 389.248 78.5463 387.441 81.0577C385.334 83.9872 381.346 84.0596 378.642 86.1211C376.478 87.7699 374.946 90.4654 372.75 92.2224C371.397 93.3052 370.875 92.4735 370.315 94.161C369.951 95.2585 370.687 97.3998 370.905 98.4617C372.25 105.013 374.768 111.055 377.158 117.296C378.284 120.237 379.239 123.178 379.753 126.295C380.09 128.339 379.702 130.127 379.865 132.095C379.98 133.495 380.576 134.705 380.445 136.141C380.167 139.183 378.515 141.87 377.465 144.545C376.267 147.595 377.912 152.877 379.118 156.031C382.009 163.587 386.073 171.222 389.685 178.482C393.232 185.615 395.871 193.21 400.004 200.062C404.017 206.716 408.74 213.231 413.307 219.524C415.847 223.025 418.543 226.355 420.845 230.027C421.348 230.83 424.784 237.488 425.675 237.257C424.582 225.638 425.687 213.553 426.176 201.942C426.787 187.406 424.937 174.24 420.847 160.365C419.891 157.121 419.038 153.802 418.366 150.488C417.895 148.167 416.565 146.259 419.829 147.274C425.233 148.954 429.99 159.156 432.737 163.597C438.891 173.543 444.03 186.807 444.72 198.473C445.397 209.923 444.813 220.879 443.382 232.161C442.676 237.727 441.535 243.931 439.791 249.254C438.894 251.992 437.817 254.828 436.623 257.452C436.119 258.559 435.012 259.81 434.82 261.027C434.518 262.957 435.932 265.562 436.286 267.468C437.442 273.705 437.708 280.169 437.314 286.499C437.103 289.894 436.634 292.93 435.526 296.123C434.115 300.191 434.771 303.298 435.358 307.491C435.987 311.978 436.589 322.178 431.923 324.728C431.594 324.694 431.263 324.66 430.933 324.626C430.1 323.665 429.359 323.722 428.713 324.797C427.507 325.191 426.328 326.205 425.057 326.641C422.107 327.654 418.925 327.715 415.848 328.16C409.827 329.032 403.826 330.57 397.911 330.756C390.906 330.976 383.599 330.702 376.75 329.474C375.335 329.22 373.68 328.549 372.264 328.42C370.343 328.245 368.994 329.523 367.01 329.222C363.936 328.757 361.993 325.503 361.792 322.837C361.152 314.341 365.865 310.445 373.568 308.937C368.591 301.811 362.861 295.966 361.536 286.814C360.233 277.811 363.06 267.39 368.195 260.177C373.123 253.252 381.534 248.622 390.207 250.379C394.233 251.195 413.224 256.802 409.553 263.162C408.739 260.252 403.732 260.815 401.313 260.395C397.3 259.698 393.287 258.647 389.216 258.864C381.208 259.289 373.468 264.026 369.59 271.197C365.12 279.464 367.16 287.714 372.542 294.772C377.463 301.226 382.536 308.006 389.154 312.666C387.875 314.7 388.337 315.339 385.796 314.974C384.051 314.724 382.419 313.364 380.656 313.025C376.999 312.323 371.244 315.319 368.985 318.315C367.65 320.085 367.699 320.96 370.161 322.05C371.977 322.855 374.837 322.439 376.788 322.613C381.641 323.046 386.587 323.191 391.456 323.174C399.883 323.143 407.721 321.791 416.061 320.916C419.758 320.528 423.624 320.975 427.241 319.615C432.14 317.773 430.939 312.362 430.304 307.978C429.675 303.636 430.316 300.269 430.998 295.969C431.294 294.101 431.846 291.945 431.455 290.066C430.991 287.832 430.158 286.844 430.264 284.353C430.642 275.489 429.53 266.153 427.18 257.598C422.078 239.016 409.618 224.351 399.226 208.557C396.291 204.097 393.206 199.87 390.869 195.039C388.656 190.462 387.131 185.622 384.933 181.032C380.089 170.916 375.493 160.496 372.662 149.616C369.454 150.878 365.997 152.736 362.557 153.181C358.661 153.686 354.495 150.539 352.038 147.768C346.433 141.449 345.154 132.878 345.574 124.735C345.697 122.325 345.847 119.895 346.279 117.517C346.559 115.973 348.375 112.237 347.962 110.799C347.519 109.26 344.939 107.922 344.146 106.397C343.137 104.457 343.021 101.959 343.075 99.8182C343.125 97.8639 344.204 88.2952 347.302 92.2062C349.077 94.4469 346.483 102.895 348.284 104.044C349.905 105.079 352.137 103.815 353.817 106.18C355.632 108.736 354.66 111.886 354.024 114.608C352.708 120.237 351.473 126.315 351.507 132.096C351.537 137.36 352.478 144.015 358.23 146.144C361.136 147.22 363.342 146.48 365.509 144.477C366.006 143.905 366.513 143.343 367.029 142.789C367.503 141.974 368.231 141.872 369.212 142.485C369.938 141.909 371.014 137.924 371.377 137.033C375.832 126.116 368.809 113.582 366.233 102.871C364.659 96.3189 363.285 89.7472 366.473 83.4242C366.989 82.4005 368.411 81.511 367.558 80.0424C367.334 79.6561 365.187 79.475 364.679 79.0261C363.024 77.5648 363.369 74.8404 363.369 72.8895C359.54 74.0703 358.436 71.0914 358.934 67.4404C356.078 67.8932 354.095 68.7666 353.037 65.4621C352.1 62.5317 353.516 59.5434 354.455 56.8127C341.241 55.3965 326.969 53.5817 316.437 44.4634C313.841 42.2149 311.682 39.3848 309.882 36.4529C309.557 35.9227 308.026 32.1903 307.518 31.9955C306.01 31.4164 304.744 34.3674 303.404 35.0983C302.212 35.7474 300.518 36.1053 299.195 36.5008C297.949 36.8734 293.557 36.9478 292.778 37.5945C290.831 39.212 290.984 48.5628 290.969 50.733C290.916 58.2075 292.585 65.656 295.67 72.4612C298.576 78.8704 303.023 87.6842 308.835 91.8787C310.304 92.9391 311.626 93.4888 313.487 93.4012C314.817 93.339 316.135 92.4079 317.52 92.8921C321.024 94.1179 319.77 96.5534 317.077 97.7048C309.378 100.998 302.89 93.7591 298.438 88.702C297.134 94.7019 303.179 101.802 306.378 106.697C308.416 109.817 310.431 112.94 312.37 116.124C313.778 118.436 316.545 122.706 311.63 120.92C309.258 133.365 302.75 144.249 299.427 156.344C296.014 168.759 293.04 182.934 293.04 195.863C295.638 194.055 296.949 185.813 300.443 192.121C300.821 192.804 300.702 193.933 301.201 194.529C301.89 195.354 302.719 195.125 303.775 195.713C305.45 196.645 306.53 198.502 305.033 200.113C306.961 199.664 308.98 199.893 309.395 202.173C309.628 203.452 307.754 209.38 306.356 209.865C302.094 211.34 297.368 202.831 296.213 200.124C293.551 202.796 290.483 204.852 288.028 200.529C286.199 197.308 287.261 192.435 287.519 188.928C288.039 181.864 288.717 174.973 289.736 167.977C291.648 154.858 296.499 143.191 302.457 131.382C304.097 128.132 305.915 124.805 307.38 121.48C309.59 116.462 306.132 117.646 302.753 118.375C296.131 119.803 289.197 120.91 282.507 121.416C279.014 121.68 274.542 121.837 271.186 122.847C268.826 123.556 269.231 123.066 268.283 125.593C267.859 126.724 267.381 127.927 266.634 128.895C262.821 133.836 252.946 133.009 247.492 132.641C247.823 130.558 248.149 128.473 248.492 126.391C244.294 127.378 239.307 128.065 234.983 128.014C232.655 127.988 230.18 127.633 227.858 127.44C226.146 127.297 222.9 126.084 221.289 126.555C219.421 127.103 216.596 133.858 215.528 136.036C213.522 140.126 209.938 144.67 208.672 148.976C207.55 152.794 209.84 159.382 210.559 163.182C211.598 168.676 212.546 174.18 214.288 179.507C215.551 183.369 217.006 188.693 220.884 190.619C224.747 192.539 227.524 193.619 231.706 193.228C239.07 192.54 246.904 193.67 254.174 195.102C261.66 196.576 268.515 197.24 275.624 199.867C291.747 205.826 302.014 224.183 295.935 241C292.439 250.672 286.679 257.861 278.229 263.845C273.924 266.894 268.837 269.368 264.116 271.718C261.949 272.797 259.819 274.106 257.61 275.064C255.996 275.765 253.221 277.377 251.468 277.554C253.414 278.48 255.137 277.613 257.162 277.326C260.027 276.918 262.953 276.831 265.829 276.475C270.305 275.921 274.715 275.503 279.193 274.947C283.015 274.473 287.327 274.304 291.126 274.851C292.961 275.115 295.722 275.636 297.356 276.52C298.641 277.215 299.82 278.817 301.202 279.61C302.722 273.368 302.011 265.673 302.082 259.259C302.14 254.022 302.374 248.902 302.867 243.69C303.418 237.861 299.853 231.232 298.536 225.523C297.303 220.179 294.021 213.407 295.229 207.83C296.753 200.8 300.741 213.429 301.289 215.235C303.006 220.885 304.999 226.401 306.902 231.984C309.165 238.626 311.445 245.061 314.741 251.285C317.484 256.464 320.636 262.539 326.274 265.065C325.808 257.449 325.292 250.397 322.126 243.375C319.123 236.716 314.544 230.794 312.543 223.659C311.548 220.113 311.402 216.487 311.353 212.825C311.32 210.361 311.433 207.049 314.075 209.705C316.171 211.812 316.578 218.532 317.495 221.368C317.937 222.733 318.549 223.986 319.038 225.314C319.257 225.912 320.737 228.825 320.737 229.215C322.263 233.82 325.637 238.236 328.008 242.473Z" fill="black"/>
<path fill-rule="evenodd" clip-rule="evenodd" d="M166.182 74.6204C166.327 76.4038 167.362 81.0262 166.037 82.4375C164.281 84.3101 163.449 81.9015 162.689 80.0025C161.102 76.0342 160.314 68.3498 163.45 65.0429C166.724 61.5896 173.193 61.4966 176.687 58.0575C178.089 56.676 177.955 56.9643 177.832 54.8044C177.763 53.5849 176.974 51.9645 176.593 50.8684C175.602 48.0202 174.514 45.2063 173.478 42.3748C171.666 43.2006 169.058 45.7482 167.274 43.6128C165.624 41.6385 168.369 38.4035 170.28 37.8263C169.282 35.6444 164.58 36.0478 163.684 32.8427C162.906 30.0572 165.142 31.1641 165.631 30.067C166.207 28.776 165.028 27.0308 165.635 25.8412C167.74 21.7109 170.072 29.3052 171.12 30.6608C173.071 33.182 176.47 33.7327 176.769 37.5463C176.953 39.8942 176.777 40.9859 177.744 43.2917C178.635 45.4144 179.693 47.4499 180.44 49.6343C181.565 52.9255 183.298 58.9152 181.101 62.1021C179.247 64.7903 174.747 66.8395 171.821 67.989C170.355 68.5642 168.323 68.9147 167.137 70.0353C165.59 71.4971 166.071 72.3954 166.182 74.6204Z" fill="black"/>
<path fill-rule="evenodd" clip-rule="evenodd" d="M318.236 174.144C317.902 173.619 317.567 173.093 317.233 172.567C314.917 175.04 312.353 176.057 310.012 172.915C307.602 169.68 308.507 164.829 309.444 161.296C309.926 159.477 312.366 152.309 313.929 157.77C314.273 158.975 313.12 161.659 312.912 162.839C312.501 165.153 312.178 167.373 312.467 169.731C315.182 167.3 316.512 161.139 319.268 167.537C320.267 169.857 320.376 173.677 323.037 170.154C324.457 168.272 324.548 164.798 325.213 162.581C329.747 163.665 328.921 170.371 327.407 173.638C324.997 178.841 321.717 177.165 318.236 174.144Z" fill="black"/>
<path fill-rule="evenodd" clip-rule="evenodd" d="M334.113 57.4403C335.726 60.1303 332.675 65.0498 332.122 67.8118C334.824 67.499 341.511 60.9817 343.392 62.0562C347.31 64.2925 339.034 72.092 337.444 73.2351C324.736 82.3691 327.027 55.9476 334.113 57.4403Z" fill="black"/>
<path fill-rule="evenodd" clip-rule="evenodd" d="M318.177 87.3972C322.925 86.0754 329.327 94.5965 326.247 98.8164C324.038 101.843 321.308 100.112 320.616 97.4477C320.263 96.0887 320.576 94.4511 320.115 92.9355C319.547 91.0693 318.786 89.2516 318.177 87.3972Z" fill="black"/>
<path fill-rule="evenodd" clip-rule="evenodd" d="M172.149 50.6676C175.759 53.7024 168.381 61.1009 164.683 55.3076C163.666 53.7141 163.481 52.2596 164.989 51.6712C165.751 51.3745 167.547 52.3463 168.622 52.1745C169.8 51.986 171.08 51.1572 172.149 50.6676Z" fill="black"/>
<path fill-rule="evenodd" clip-rule="evenodd" d="M159.742 38.5326C158.341 36.7849 154.403 26.0344 159.283 28.4288C161.733 29.6311 163.757 38.8215 159.742 38.5326Z" fill="black"/>
<path fill-rule="evenodd" clip-rule="evenodd" d="M320.843 269.753C320.704 268.396 320.566 267.039 320.427 265.682C322.229 266.601 325.844 267.508 326.471 269.565C327.648 273.428 322.178 270.338 320.843 269.753Z" fill="black"/>
<path fill-rule="evenodd" clip-rule="evenodd" d="M373.14 106.114C372.067 104.664 368.73 92.573 371.625 92.8496C372.132 97.2359 372.236 101.791 373.14 106.114Z" fill="black"/>
<path fill-rule="evenodd" clip-rule="evenodd" d="M328.007 242.473C325.637 238.236 322.263 233.82 320.737 229.215C324.314 232.112 327.108 238.028 328.007 242.473Z" fill="black"/>
<path fill-rule="evenodd" clip-rule="evenodd" d="M425.242 232.651C425.386 234.187 425.531 235.722 425.675 237.257C423.527 237.812 425.11 233.158 425.242 232.651Z" fill="black"/>
<path fill-rule="evenodd" clip-rule="evenodd" d="M320.742 229.223C319.725 228.116 319.29 226.755 319.038 225.314C319.606 226.616 320.174 227.919 320.742 229.223Z" fill="black"/>
<path fill-rule="evenodd" clip-rule="evenodd" d="M333.038 298.739C333.076 297.372 333.114 296.006 333.152 294.643C333.114 296.01 333.076 297.374 333.038 298.739Z" fill="black"/>
<path fill-rule="evenodd" clip-rule="evenodd" d="M172.408 77.0428C173.318 77.1559 174.228 77.269 175.138 77.382C174.42 77.7184 172.728 78.1653 172.408 77.0428Z" fill="black"/>
<path fill-rule="evenodd" clip-rule="evenodd" d="M353.838 313.079C354.785 312.936 355.735 312.61 356.665 313.134C355.721 313.116 354.78 313.098 353.838 313.079Z" fill="black"/>
<path fill-rule="evenodd" clip-rule="evenodd" d="M326.79 282.212C326.802 283.224 326.815 284.236 326.826 285.244C326.813 284.232 326.801 283.222 326.79 282.212Z" fill="black"/>
<path fill-rule="evenodd" clip-rule="evenodd" d="M346.349 266.466C346.29 267.545 346.23 268.624 346.171 269.701C346.23 268.621 346.29 267.544 346.349 266.466Z" fill="black"/>
<path fill-rule="evenodd" clip-rule="evenodd" d="M333.471 270.689C333.42 269.75 333.368 268.811 333.317 267.874C333.369 268.814 333.42 269.752 333.471 270.689Z" fill="black"/>
<path fill-rule="evenodd" clip-rule="evenodd" d="M361.6 278.973C361.55 279.809 361.499 280.646 361.448 281.48C361.499 280.643 361.55 279.808 361.6 278.973Z" fill="black"/>
<path fill-rule="evenodd" clip-rule="evenodd" d="M191.639 300.101C190.718 300.565 189.797 300.611 188.88 300.095C189.8 300.097 190.719 300.099 191.639 300.101Z" fill="black"/>
<path fill-rule="evenodd" clip-rule="evenodd" d="M285.891 47.3918C285.903 48.2187 285.917 49.0455 285.929 49.869C285.916 49.0411 285.903 48.2167 285.891 47.3918Z" fill="black"/>
<path fill-rule="evenodd" clip-rule="evenodd" d="M194.446 69.9518C193.503 70.0233 192.559 70.0942 191.617 70.1657C192.56 70.0942 193.503 70.0233 194.446 69.9518Z" fill="black"/>
<path fill-rule="evenodd" clip-rule="evenodd" d="M389.244 73.1338C389.239 72.3178 389.234 71.5017 389.23 70.6871C389.663 71.5017 389.672 72.3168 389.244 73.1338Z" fill="black"/>
<path fill-rule="evenodd" clip-rule="evenodd" d="M166.182 74.6204C166.139 73.7534 166.096 72.8869 166.053 72.0214C166.097 72.8889 166.139 73.7544 166.182 74.6204Z" fill="black"/>
<path fill-rule="evenodd" clip-rule="evenodd" d="M397.911 330.756C398.548 330.76 399.185 330.765 399.816 330.769C399.177 330.765 398.544 330.76 397.911 330.756Z" fill="black"/>
<path fill-rule="evenodd" clip-rule="evenodd" d="M147.223 0.145996C146.385 0.21747 145.547 0.288945 144.71 0.359929C145.547 0.288945 146.385 0.21747 147.223 0.145996Z" fill="black"/>
<path fill-rule="evenodd" clip-rule="evenodd" d="M229.838 319.969C230.378 319.969 230.918 319.968 231.451 319.969C230.91 319.969 230.374 319.969 229.838 319.969Z" fill="black"/>
<path fill-rule="evenodd" clip-rule="evenodd" d="M313.487 93.4014C312.668 93.3196 311.849 93.2374 311.031 93.1552C311.85 93.2374 312.669 93.3196 313.487 93.4014Z" fill="black"/>
<path fill-rule="evenodd" clip-rule="evenodd" d="M350.716 318.54C350.766 317.865 350.816 317.19 350.866 316.518C350.816 317.194 350.766 317.867 350.716 318.54Z" fill="black"/>
<path fill-rule="evenodd" clip-rule="evenodd" d="M262.06 84.7577C261.253 84.7504 260.447 84.7435 259.641 84.7367C260.452 84.2677 261.256 84.4018 262.06 84.7577Z" fill="black"/>
<path fill-rule="evenodd" clip-rule="evenodd" d="M154.475 0.371641C153.662 0.345695 152.803 0.769156 152.054 0.124908C152.861 0.207153 153.668 0.289397 154.475 0.371641Z" fill="black"/>
<path fill-rule="evenodd" clip-rule="evenodd" d="M132.525 80.0468C131.746 80.1183 130.967 80.1898 130.188 80.2607C130.968 80.1893 131.746 80.1183 132.525 80.0468Z" fill="black"/>
<path fill-rule="evenodd" clip-rule="evenodd" d="M181.598 299.401C180.777 299.487 179.956 299.572 179.137 299.658C179.957 299.572 180.778 299.487 181.598 299.401Z" fill="black"/>
<path fill-rule="evenodd" clip-rule="evenodd" d="M202.023 69.4577C201.223 69.4748 200.422 69.492 199.623 69.5091C200.417 69.1914 201.211 68.8918 202.023 69.4577Z" fill="black"/>
<path fill-rule="evenodd" clip-rule="evenodd" d="M333.009 288.334C333.004 287.64 333 286.946 332.995 286.254C333 286.948 333.004 287.641 333.009 288.334Z" fill="black"/>
<path fill-rule="evenodd" clip-rule="evenodd" d="M425.536 229.509C425.45 230.348 425.363 231.186 425.277 232.025C425.363 231.187 425.45 230.348 425.536 229.509Z" fill="black"/>
<path fill-rule="evenodd" clip-rule="evenodd" d="M321.71 283.556C321.651 282.842 321.592 282.128 321.532 281.417C321.592 282.131 321.651 282.844 321.71 283.556Z" fill="black"/>
<path fill-rule="evenodd" clip-rule="evenodd" d="M52.5595 276.999C52.4131 277.71 51.8942 277.85 51.0027 277.419L52.5595 276.999Z" fill="black"/>
<path fill-rule="evenodd" clip-rule="evenodd" d="M351.581 277.315C351.533 276.695 351.486 276.074 351.439 275.456C351.487 276.076 351.533 276.696 351.581 277.315Z" fill="black"/>
<path fill-rule="evenodd" clip-rule="evenodd" d="M183.928 70.9519C183.255 71.0434 182.582 71.1345 181.908 71.226C182.582 71.1345 183.255 71.0434 183.928 70.9519Z" fill="black"/>
<path fill-rule="evenodd" clip-rule="evenodd" d="M326.384 272.028C326.383 272.637 326.382 273.246 326.381 273.853C326.382 273.243 326.383 272.636 326.384 272.028Z" fill="black"/>
<path fill-rule="evenodd" clip-rule="evenodd" d="M285.77 53.4015C285.77 53.9777 285.771 54.5534 285.771 55.1266C285.771 54.5499 285.77 53.9757 285.77 53.4015Z" fill="black"/>
<path fill-rule="evenodd" clip-rule="evenodd" d="M40.18 188.354C40.1134 188.961 40.0468 189.569 39.9807 190.174C40.0473 189.566 40.1134 188.96 40.18 188.354Z" fill="black"/>
<path fill-rule="evenodd" clip-rule="evenodd" d="M443.537 230.089C443.501 229.517 443.465 228.946 443.43 228.377C443.465 228.95 443.501 229.519 443.537 230.089Z" fill="black"/>
<path fill-rule="evenodd" clip-rule="evenodd" d="M95.7761 305.554C95.0805 305.543 94.3848 305.532 93.6892 305.521C94.3931 305.039 95.0868 305.142 95.7761 305.554Z" fill="black"/>
<path fill-rule="evenodd" clip-rule="evenodd" d="M176.786 38.405C176.775 37.8317 176.764 37.2584 176.752 36.6871C177.11 37.2545 177.224 37.8244 176.786 38.405Z" fill="black"/>
<path fill-rule="evenodd" clip-rule="evenodd" d="M121.242 31.1341C121.291 30.5687 121.339 30.0033 121.387 29.4413C121.338 30.0077 121.291 30.5707 121.242 31.1341Z" fill="black"/>
<path fill-rule="evenodd" clip-rule="evenodd" d="M351.171 229.067C351.147 228.444 351.123 227.821 351.1 227.199C351.124 227.822 351.147 228.445 351.171 229.067Z" fill="black"/>
<path fill-rule="evenodd" clip-rule="evenodd" d="M346.693 261.262C346.676 261.85 346.659 262.438 346.641 263.022C346.657 262.433 346.675 261.848 346.693 261.262Z" fill="black"/>
<path fill-rule="evenodd" clip-rule="evenodd" d="M266.623 317.945C267.059 317.944 267.495 317.943 267.926 317.943C267.488 317.945 267.056 317.945 266.623 317.945Z" fill="black"/>
<path fill-rule="evenodd" clip-rule="evenodd" d="M54.5041 318.242C54.9393 318.254 55.374 318.266 55.8038 318.278C55.3672 318.266 54.9354 318.255 54.5041 318.242Z" fill="black"/>
<path fill-rule="evenodd" clip-rule="evenodd" d="M317.627 266.659C313.384 263.38 309.685 258.477 308.823 253.228C310.648 255.29 312.182 257.59 314.007 259.65C314.732 260.468 315.622 261.173 316.318 262.007C317.906 263.907 317.627 263.992 317.627 266.659Z" fill="black"/>
<path fill-rule="evenodd" clip-rule="evenodd" d="M302.721 244.497C300.685 239.806 298.917 234.116 299.272 228.941C300.677 233.64 303.936 239.542 302.721 244.497Z" fill="black"/>
<path fill-rule="evenodd" clip-rule="evenodd" d="M309.553 272.082C309.519 273.443 309.484 274.805 309.451 276.164C309.487 274.8 309.52 273.441 309.553 272.082Z" fill="black"/>
<path fill-rule="evenodd" clip-rule="evenodd" d="M40.2529 309.098C41.6446 309.181 43.0369 309.264 44.4287 309.346C43.0306 309.365 41.6138 309.704 40.2529 309.098Z" fill="black"/>
<path fill-rule="evenodd" clip-rule="evenodd" d="M309.546 267.583C309.551 268.744 309.556 269.905 309.561 271.064C309.556 269.902 309.551 268.742 309.546 267.583Z" fill="black"/>
<path fill-rule="evenodd" clip-rule="evenodd" d="M252.359 132.934C251.576 132.893 250.792 132.852 250.014 132.812C250.8 132.852 251.58 132.893 252.359 132.934Z" fill="black"/>
<path fill-rule="evenodd" clip-rule="evenodd" d="M265.106 104.049C265.103 103.106 265.1 102.164 265.097 101.224C265.099 102.167 265.103 103.108 265.106 104.049Z" fill="black"/>
<path fill-rule="evenodd" clip-rule="evenodd" d="M248.278 127.689C248.242 127.026 247.89 126.692 247.219 126.688C248.565 125.961 248.919 126.294 248.278 127.689Z" fill="black"/>
<path fill-rule="evenodd" clip-rule="evenodd" d="M288.201 180.117C288.254 179.278 288.306 178.439 288.359 177.603C288.306 178.442 288.254 179.28 288.201 180.117Z" fill="black"/>
<path fill-rule="evenodd" clip-rule="evenodd" d="M60.0139 309.691C60.9529 309.626 61.8918 309.56 62.8308 309.495C61.8913 309.56 60.9529 309.626 60.0139 309.691Z" fill="black"/>
<path fill-rule="evenodd" clip-rule="evenodd" d="M257.222 195.839L260.016 195.819C259.085 195.826 258.153 195.833 257.222 195.839Z" fill="black"/>
<path fill-rule="evenodd" clip-rule="evenodd" d="M283.891 93.6483C283.241 93.6537 282.592 93.6591 281.948 93.664C282.6 93.6586 283.245 93.6537 283.891 93.6483Z" fill="black"/>
<path fill-rule="evenodd" clip-rule="evenodd" d="M419.333 320.564C420.147 320.56 420.962 320.557 421.776 320.553C420.964 321.066 420.149 321.053 419.333 320.564Z" fill="black"/>
<path fill-rule="evenodd" clip-rule="evenodd" d="M77.3724 207.821C76.8202 207.836 76.2679 207.852 75.7211 207.868C76.2753 207.852 76.8236 207.836 77.3724 207.821Z" fill="black"/>
<path fill-rule="evenodd" clip-rule="evenodd" d="M370.692 85.8105C371.215 86.3147 370.527 87.474 369.905 87.0745C370.167 86.653 370.43 86.232 370.692 85.8105Z" fill="black"/>
<path fill-rule="evenodd" clip-rule="evenodd" d="M115.381 258.865C115.404 258.151 115.427 257.438 115.45 256.726C115.427 257.44 115.404 258.152 115.381 258.865Z" fill="black"/>
<path fill-rule="evenodd" clip-rule="evenodd" d="M302.082 259.259C302.12 258.515 302.157 257.771 302.194 257.027C302.157 257.772 302.119 258.515 302.082 259.259Z" fill="black"/>
<path fill-rule="evenodd" clip-rule="evenodd" d="M432.375 181.705C432.406 182.45 432.437 183.195 432.468 183.938C432.437 183.192 432.406 182.448 432.375 181.705Z" fill="black"/>
<path fill-rule="evenodd" clip-rule="evenodd" d="M180.778 266.087C181.612 266.159 182.446 266.23 183.28 266.301C182.446 266.23 181.612 266.159 180.778 266.087Z" fill="black"/>
<path fill-rule="evenodd" clip-rule="evenodd" d="M295.168 208.939C295.209 208.199 295.25 207.459 295.291 206.72C295.249 207.461 295.209 208.2 295.168 208.939Z" fill="black"/>
<path fill-rule="evenodd" clip-rule="evenodd" d="M150.241 223.019C151.072 223.096 151.903 223.172 152.734 223.249C151.903 223.172 151.072 223.095 150.241 223.019Z" fill="black"/>
<path fill-rule="evenodd" clip-rule="evenodd" d="M223.798 287.741C223.263 287.741 222.728 287.741 222.198 287.741C222.736 287.741 223.267 287.741 223.798 287.741Z" fill="black"/>
<path fill-rule="evenodd" clip-rule="evenodd" d="M271.017 106.833C270.986 107.524 270.954 108.216 270.923 108.904C270.955 108.212 270.987 107.522 271.017 106.833Z" fill="black"/>
<path fill-rule="evenodd" clip-rule="evenodd" d="M282.878 274.613C283.7 274.029 284.501 274.414 285.304 274.668C284.495 274.65 283.686 274.631 282.878 274.613Z" fill="black"/>
<path fill-rule="evenodd" clip-rule="evenodd" d="M186.676 76.695C186.134 76.673 185.593 76.6505 185.058 76.626C185.601 76.648 186.138 76.6715 186.676 76.695Z" fill="black"/>
<path fill-rule="evenodd" clip-rule="evenodd" d="M317.856 287.333C317.807 286.644 317.759 285.956 317.71 285.27C317.759 285.959 317.807 286.646 317.856 287.333Z" fill="black"/>
<path fill-rule="evenodd" clip-rule="evenodd" d="M273.55 209.597C273.104 209.599 272.658 209.602 272.217 209.606C272.665 209.604 273.107 209.6 273.55 209.597Z" fill="black"/>
<path fill-rule="evenodd" clip-rule="evenodd" d="M292.363 234.61C292.364 234.036 292.364 233.461 292.365 232.89C292.364 233.465 292.364 234.038 292.363 234.61Z" fill="black"/>
<path fill-rule="evenodd" clip-rule="evenodd" d="M263.826 276.735C264.495 276.648 265.162 276.562 265.83 276.475C265.161 276.562 264.494 276.648 263.826 276.735Z" fill="black"/>
<path fill-rule="evenodd" clip-rule="evenodd" d="M234.947 193.168C235.671 193.164 236.394 193.159 237.118 193.155C236.397 193.58 235.673 193.5 234.947 193.168Z" fill="black"/>
<path fill-rule="evenodd" clip-rule="evenodd" d="M272.429 122.858C272.011 122.854 271.593 122.85 271.18 122.847C271.6 122.85 272.015 122.854 272.429 122.858Z" fill="black"/>
<path fill-rule="evenodd" clip-rule="evenodd" d="M148.866 229.408C148.435 229.402 148.004 229.397 147.578 229.39C148.011 229.397 148.439 229.402 148.866 229.408Z" fill="black"/>
<path fill-rule="evenodd" clip-rule="evenodd" d="M65.5646 201.132C66.2867 201.139 67.0087 201.147 67.7308 201.154C67.0043 201.562 66.2823 201.573 65.5646 201.132Z" fill="black"/>
<path fill-rule="evenodd" clip-rule="evenodd" d="M432.445 202.326C432.399 202.877 432.353 203.428 432.31 203.976C432.355 203.424 432.4 202.875 432.445 202.326Z" fill="black"/>
<path fill-rule="evenodd" clip-rule="evenodd" d="M248.614 290.87C248.675 290.268 248.737 289.667 248.798 289.067C248.736 289.67 248.675 290.27 248.614 290.87Z" fill="black"/>
<path fill-rule="evenodd" clip-rule="evenodd" d="M131.856 219.191C132.585 219.201 133.315 219.212 134.045 219.222C133.308 219.73 132.582 219.41 131.856 219.191Z" fill="black"/>
<path fill-rule="evenodd" clip-rule="evenodd" d="M298.205 113.577C298.915 113.496 299.625 113.416 300.334 113.336C299.625 113.416 298.915 113.496 298.205 113.577Z" fill="black"/>
<path fill-rule="evenodd" clip-rule="evenodd" d="M238.9 306.385C238.964 307.017 239.028 307.649 239.092 308.279C239.028 307.646 238.963 307.016 238.9 306.385Z" fill="black"/>
<path fill-rule="evenodd" clip-rule="evenodd" d="M302.094 264.819C302.093 264.229 302.091 263.639 302.091 263.052C302.092 263.643 302.093 264.231 302.094 264.819Z" fill="black"/>
<path fill-rule="evenodd" clip-rule="evenodd" d="M44.774 309.43C45.4609 309.521 46.1477 309.611 46.8341 309.701C46.1472 309.611 45.4604 309.521 44.774 309.43Z" fill="black"/>
<path fill-rule="evenodd" clip-rule="evenodd" d="M57.6594 309.708C58.3374 309.154 59.0257 309.324 59.7165 309.679C59.0306 309.688 58.3447 309.698 57.6594 309.708Z" fill="black"/>
<path fill-rule="evenodd" clip-rule="evenodd" d="M181.558 228.483C182.23 228.401 182.902 228.319 183.572 228.236C182.901 228.319 182.23 228.401 181.558 228.483Z" fill="black"/>
<path fill-rule="evenodd" clip-rule="evenodd" d="M256.188 312.83C256.872 312.738 257.557 312.647 258.241 312.555C257.556 312.647 256.872 312.738 256.188 312.83Z" fill="black"/>
<path fill-rule="evenodd" clip-rule="evenodd" d="M232.25 313.893C232.948 313.804 233.645 313.714 234.344 313.624C233.645 313.714 232.948 313.804 232.25 313.893Z" fill="black"/>
<path fill-rule="evenodd" clip-rule="evenodd" d="M270.678 111.013C270.647 111.577 270.616 112.141 270.586 112.701C270.617 112.136 270.647 111.575 270.678 111.013Z" fill="black"/>
<path fill-rule="evenodd" clip-rule="evenodd" d="M106.285 245.38C106.347 244.782 106.409 244.183 106.471 243.587C106.409 244.186 106.347 244.783 106.285 245.38Z" fill="black"/>
<path fill-rule="evenodd" clip-rule="evenodd" d="M265.288 96.4379C265.306 95.8509 265.324 95.264 265.343 94.6799C265.325 95.2679 265.307 95.8529 265.288 96.4379Z" fill="black"/>
<path fill-rule="evenodd" clip-rule="evenodd" d="M131.98 238.725C132.041 239.325 132.103 239.924 132.164 240.521C132.102 239.92 132.041 239.323 131.98 238.725Z" fill="black"/>
<path fill-rule="evenodd" clip-rule="evenodd" d="M134.293 219.197C135 219.275 135.708 219.353 136.416 219.431C135.708 219.353 135 219.275 134.293 219.197Z" fill="black"/>
<path fill-rule="evenodd" clip-rule="evenodd" d="M246.983 306.546C247.386 307.729 247.238 310.482 246.093 311.315C243.718 313.046 243.474 309.885 243.003 308.178C241.695 303.441 239.589 298.152 239.053 293.283C238.888 291.789 238.799 288.991 240.775 288.488C242.682 288.002 243.648 291.023 244.306 292.575C246.131 296.881 247.189 301.877 246.983 306.546Z" fill="black"/>
<path fill-rule="evenodd" clip-rule="evenodd" d="M246.983 306.546C247.01 305.934 247.037 305.322 247.064 304.713C247.037 305.326 247.01 305.936 246.983 306.546Z" fill="black"/>
</svg>
