<svg width="30" height="30" viewBox="0 0 30 30" fill="none" xmlns="http://www.w3.org/2000/svg">
<path fill-rule="evenodd" clip-rule="evenodd" d="M30 30H24V19.5015C24 16.6215 22.7295 15.0146 20.451 15.0146C17.9715 15.0146 16.5 16.689 16.5 19.5015V30H10.5V10.5H16.5V12.6929C16.5 12.6929 18.3825 9.38965 22.6245 9.38965C26.868 9.38965 30 11.9792 30 17.3372V30ZM3.66303 7.38135C3.1801 7.37958 2.70225 7.28293 2.25677 7.09644C1.8113 6.90994 1.40693 6.63724 1.06677 6.29443C0.726608 5.95163 0.457322 5.5453 0.274288 5.09839C0.0912545 4.65148 -0.0019429 4.17287 3.07016e-05 3.68994C-0.0017454 3.20714 0.0915894 2.72896 0.274712 2.28223C0.457834 1.83549 0.727154 1.42883 1.0673 1.08618C1.40744 0.743533 1.81174 0.47131 2.25711 0.284912C2.70249 0.0985139 3.18023 0.00176959 3.66303 0C4.63784 0.00397062 5.57117 0.394947 6.2578 1.08691C6.94442 1.77888 7.32811 2.71513 7.32452 3.68994C7.3267 4.1728 7.2337 4.65149 7.05083 5.09839C6.86796 5.54529 6.5988 5.95161 6.25876 6.29443C5.91872 6.63726 5.51446 6.90992 5.06907 7.09644C4.62367 7.28295 4.1459 7.37958 3.66303 7.38135ZM3.07016e-05 30H7.50003V10.5H3.07016e-05V30Z" fill="black"/>
</svg>
