<svg width="35" height="35" viewBox="0 0 35 35" fill="none" xmlns="http://www.w3.org/2000/svg">
<path d="M26.845 6.055C26.4297 6.055 26.0236 6.17816 25.6783 6.40891C25.333 6.63967 25.0638 6.96764 24.9049 7.35137C24.7459 7.73509 24.7043 8.15733 24.7854 8.56469C24.8664 8.97205 25.0664 9.34623 25.3601 9.63992C25.6538 9.93361 26.028 10.1336 26.4353 10.2146C26.8427 10.2957 27.2649 10.2541 27.6486 10.0951C28.0324 9.9362 28.3603 9.66704 28.5911 9.3217C28.8218 8.97635 28.945 8.57034 28.945 8.155C28.945 7.59805 28.7238 7.0639 28.3299 6.67008C27.9361 6.27625 27.402 6.055 26.845 6.055ZM34.895 10.29C34.861 8.83802 34.589 7.40145 34.09 6.0375C33.645 4.87048 32.9525 3.81374 32.06 2.94C31.1934 2.043 30.1342 1.35481 28.9625 0.9275C27.6021 0.413281 26.164 0.135117 24.71 0.105C22.855 -9.77889e-08 22.26 0 17.5 0C12.74 0 12.145 -9.77889e-08 10.29 0.105C8.83602 0.135117 7.39785 0.413281 6.0375 0.9275C4.86793 1.35913 3.80963 2.04673 2.94 2.94C2.043 3.80656 1.35481 4.86577 0.9275 6.0375C0.413281 7.39785 0.135117 8.83602 0.105 10.29C-9.77889e-08 12.145 0 12.74 0 17.5C0 22.26 -9.77889e-08 22.855 0.105 24.71C0.135117 26.164 0.413281 27.6021 0.9275 28.9625C1.35481 30.1342 2.043 31.1934 2.94 32.06C3.80963 32.9533 4.86793 33.6409 6.0375 34.0725C7.39785 34.5867 8.83602 34.8649 10.29 34.895C12.145 35 12.74 35 17.5 35C22.26 35 22.855 35 24.71 34.895C26.164 34.8649 27.6021 34.5867 28.9625 34.0725C30.1342 33.6452 31.1934 32.957 32.06 32.06C32.9564 31.1895 33.6496 30.1318 34.09 28.9625C34.589 27.5985 34.861 26.162 34.895 24.71C34.895 22.855 35 22.26 35 17.5C35 12.74 35 12.145 34.895 10.29ZM31.745 24.5C31.7323 25.6108 31.5311 26.7115 31.15 27.755C30.8706 28.5166 30.4218 29.2047 29.8375 29.7675C29.2699 30.3459 28.5831 30.7938 27.825 31.08C26.7815 31.4611 25.6809 31.6623 24.57 31.675C22.82 31.7625 22.1725 31.78 17.57 31.78C12.9675 31.78 12.32 31.78 10.57 31.675C9.41656 31.6966 8.26804 31.519 7.175 31.15C6.45012 30.8491 5.79487 30.4024 5.25 29.8375C4.66916 29.2753 4.22598 28.5866 3.955 27.825C3.52775 26.7665 3.29078 25.6409 3.255 24.5C3.255 22.75 3.15 22.1025 3.15 17.5C3.15 12.8975 3.15 12.25 3.255 10.5C3.26284 9.36435 3.47016 8.2389 3.8675 7.175C4.17558 6.43634 4.64846 5.7779 5.25 5.25C5.78167 4.64829 6.43875 4.17042 7.175 3.85C8.24171 3.46508 9.366 3.26389 10.5 3.255C12.25 3.255 12.8975 3.15 17.5 3.15C22.1025 3.15 22.75 3.15 24.5 3.255C25.6108 3.26774 26.7115 3.46893 27.755 3.85C28.5503 4.14514 29.264 4.62498 29.8375 5.25C30.411 5.78756 30.8591 6.44478 31.15 7.175C31.5389 8.24063 31.7403 9.36561 31.745 10.5C31.8325 12.25 31.85 12.8975 31.85 17.5C31.85 22.1025 31.8325 22.75 31.745 24.5ZM17.5 8.5225C15.7252 8.52596 13.9912 9.05542 12.5171 10.044C11.0431 11.0325 9.89516 12.4358 9.21836 14.0766C8.54156 15.7173 8.36627 17.5218 8.71464 19.2621C9.06301 21.0024 9.91941 22.6004 11.1756 23.8542C12.4319 25.108 14.0315 25.9613 15.7725 26.3063C17.5135 26.6512 19.3177 26.4724 20.9571 25.7924C22.5965 25.1124 23.9975 23.9618 24.9832 22.4858C25.9689 21.0098 26.495 19.2748 26.495 17.5C26.4973 16.3189 26.2661 15.1491 25.8147 14.0577C25.3632 12.9663 24.7005 11.9749 23.8645 11.1406C23.0286 10.3063 22.0359 9.64544 20.9436 9.19613C19.8514 8.74682 18.6811 8.51788 17.5 8.5225ZM17.5 23.3275C16.3474 23.3275 15.2207 22.9857 14.2624 22.3454C13.3041 21.7051 12.5572 20.7949 12.1161 19.7301C11.675 18.6653 11.5596 17.4935 11.7845 16.3631C12.0093 15.2327 12.5643 14.1943 13.3793 13.3793C14.1943 12.5643 15.2327 12.0093 16.3631 11.7845C17.4935 11.5596 18.6653 11.675 19.7301 12.1161C20.7949 12.5572 21.7051 13.3041 22.3454 14.2624C22.9857 15.2207 23.3275 16.3474 23.3275 17.5C23.3275 18.2653 23.1768 19.0231 22.8839 19.7301C22.591 20.4371 22.1618 21.0795 21.6207 21.6207C21.0795 22.1618 20.4371 22.591 19.7301 22.8839C19.0231 23.1768 18.2653 23.3275 17.5 23.3275Z" fill="black"/>
</svg>
