<svg width="69" height="62" viewBox="0 0 69 62" fill="none" xmlns="http://www.w3.org/2000/svg">
<path d="M4.0293 55.0588C2.44471 55.0588 1.11338 53.8049 1.03391 52.2083C0.534216 42.2219 0 28.4234 0 19.6448C0 14.6879 0.0766606 9.3494 0.234397 3.32412C0.279751 1.59344 1.66968 0.192277 3.39835 0.13448C7.41801 -0.000378034 12.0221 -0.00278622 13.9956 0.000826054H14.2396C23.3313 0.000826054 32.5984 0.251679 41.5601 0.493701C44.8665 0.583607 48.1701 0.672309 51.4685 0.750173C53.1703 0.79031 54.5193 2.15535 54.539 3.85874C54.6498 13.4152 54.9171 23.1579 55.1755 32.5804C55.3461 38.8107 55.5227 45.253 55.6524 51.5785C55.6688 52.3648 55.3606 53.1358 54.8075 53.6937C54.254 54.2516 53.4938 54.5494 52.6991 54.5559C46.8737 54.4792 41.554 54.4419 36.4366 54.4419C24.6759 54.4419 14.1164 54.643 4.15412 55.0564C4.11238 55.058 4.07104 55.0588 4.0293 55.0588ZM13.6721 1.53926C11.5641 1.53926 7.2386 1.54487 3.44932 1.67211C2.53261 1.70261 1.7957 2.44594 1.77162 3.36426C1.61469 9.37629 1.53843 14.7016 1.53843 19.6448C1.53843 28.3949 2.07144 42.1637 2.57034 52.1316C2.61047 52.9299 3.30644 53.5557 4.0907 53.5191C14.0738 53.1045 24.6546 52.903 36.437 52.903C41.5613 52.903 46.887 52.9404 52.7192 53.017C53.1069 53.0323 53.4545 52.8729 53.7158 52.6096C53.9775 52.3464 54.1228 51.9815 54.1155 51.6098C53.9859 45.2896 53.8093 38.8501 53.6387 32.6225C53.3802 23.1941 53.1129 13.4449 53.0014 3.8764C52.9913 3.00624 52.3026 2.30827 51.4328 2.2878C48.1328 2.21034 44.8272 2.12123 41.5191 2.03133C32.5667 1.78931 23.3104 1.53926 14.2396 1.53926H13.9952C13.8948 1.53926 13.7865 1.53926 13.6721 1.53926Z" fill="#FF5678"/>
<path d="M28.004 47.1526C18.6751 47.1526 17.0419 44.3724 15.601 41.92C14.5731 40.1701 13.7608 38.7878 9.54405 38.7878C8.4419 38.7878 7.26831 38.9054 6.13325 39.0194C5.79691 39.0531 5.46057 39.0868 5.12543 39.1181C4.91752 39.1362 4.70761 39.07 4.54867 38.9315C4.39013 38.793 4.29541 38.5955 4.28618 38.3848C4.15332 35.2971 4.0883 31.9305 4.0883 28.0942C4.0883 24.4226 4.1469 20.6899 4.20349 17.0792C4.26009 13.4774 4.31788 9.75351 4.31788 6.09949C4.31788 5.45048 4.31628 4.80107 4.31186 4.15247C4.31066 3.94657 4.39214 3.7487 4.53783 3.6034C4.68353 3.45771 4.86173 3.37101 5.0873 3.37864L50.0461 3.75993C50.4619 3.76355 50.7995 4.09668 50.8087 4.51249C51.0427 15.1864 51.1699 26.6281 51.1984 39.491C51.1992 39.8907 50.8942 40.2243 50.4964 40.2592C40.9231 41.0952 39.0941 42.8372 37.4798 44.3736C35.9137 45.8642 34.5603 47.1526 28.004 47.1526ZM9.54405 37.2494C14.6414 37.2494 15.8037 39.2277 16.9271 41.141C18.2191 43.3401 19.5553 45.6142 28.004 45.6142C33.9454 45.6142 35.0371 44.5751 36.4194 43.2586C38.0871 41.6708 40.1521 39.7045 49.6592 38.7902C49.6283 26.5205 49.5067 15.5468 49.2875 5.29114L5.85471 4.92269C5.85591 5.31482 5.85671 5.70695 5.85671 6.09909C5.85671 9.76515 5.79811 13.4954 5.74192 17.1029C5.68533 20.7075 5.62713 24.4342 5.62713 28.0938C5.62713 31.5749 5.68051 34.6642 5.79009 37.5074C5.8535 37.501 5.91652 37.4946 5.97993 37.4882C7.15232 37.371 8.36484 37.2494 9.54405 37.2494Z" fill="#FF5678"/>
<path d="M44.6827 14.5623C44.258 14.5623 43.9137 14.2179 43.9137 13.7933V10.9034C41.3321 10.8802 38.7561 10.8693 36.1834 10.8693C28.228 10.8693 19.6937 10.9745 10.0931 11.19C9.66205 11.1944 9.31607 10.8629 9.30684 10.4387C9.29721 10.0136 9.63395 9.66202 10.0582 9.65239C19.6705 9.43605 28.2163 9.3313 36.183 9.3313C39.0138 9.3313 41.8487 9.34454 44.6903 9.37264C45.1117 9.37705 45.4517 9.72022 45.4517 10.1417V13.7929C45.4517 14.2179 45.1073 14.5623 44.6827 14.5623Z" fill="#FF5678"/>
<path d="M45.7559 19.7211C45.7479 19.7211 11.0355 19.3515 11.0355 19.3515C10.6137 19.3471 10.2745 19.0039 10.2745 18.5825L10.2785 16.8124C10.2785 15.7785 10.2645 14.6732 10.1645 13.5895C10.1373 13.2925 10.2838 13.0067 10.5402 12.8558C10.7979 12.7053 11.1186 12.7153 11.3642 12.8839C13.7527 14.5166 16.6253 16.3729 19.8182 17.7565C19.9057 17.7942 19.9827 17.8468 20.0477 17.9094L45.7644 18.1831C46.189 18.1875 46.5298 18.5355 46.5253 18.9605C46.5201 19.382 46.1766 19.7211 45.7559 19.7211ZM11.8142 17.8215L16.5218 17.8712C14.816 16.967 13.2318 15.98 11.7921 15.0264C11.8125 15.636 11.817 16.2353 11.817 16.812L11.8142 17.8215Z" fill="#FF5678"/>
<path d="M11.4164 26.2535C10.9962 26.2535 10.653 25.9152 10.6478 25.4937C10.643 25.0695 10.9829 24.7207 11.4072 24.7155C19.0427 24.622 26.9384 24.5256 34.8565 24.5256C38.307 24.5256 41.481 24.5437 44.5583 24.581C44.9833 24.5862 45.3232 24.935 45.318 25.3593C45.3128 25.7839 44.9945 26.1195 44.5398 26.119C41.4685 26.0817 38.301 26.0637 34.8565 26.0637C26.9472 26.0641 19.0572 26.1604 11.4164 26.2535Z" fill="#FF5678"/>
<path d="M11.5448 34.6642C11.1182 34.6642 10.7505 34.3199 10.7505 33.8952C10.7505 33.4706 11.0716 33.1262 11.4963 33.1262C21.89 33.1262 33.583 33.1262 44.1412 32.9011L43.65 28.4804C43.603 28.0586 43.9072 27.6781 44.3299 27.6311C44.7477 27.5834 45.1322 27.8888 45.1792 28.3111L45.7628 33.5665C45.7864 33.7812 45.719 33.9956 45.5769 34.1581C45.4348 34.3207 45.2314 34.4158 45.0154 34.4206C34.2239 34.6642 22.1754 34.6642 11.5448 34.6642Z" fill="#FF5678"/>
<path d="M37.5741 34.396C37.3148 34.396 37.062 34.2652 36.9171 34.028C36.6959 33.6655 36.8099 33.1923 37.1723 32.9704C39.5087 31.5427 41.5215 29.5299 43.4681 27.5833C43.7688 27.2834 44.2552 27.2834 44.5562 27.5833C44.8565 27.8835 44.8565 28.3707 44.5562 28.6714C42.5458 30.6814 40.4671 32.7601 37.9747 34.2832C37.8494 34.3595 37.711 34.396 37.5741 34.396Z" fill="#FF5678"/>
<path d="M52.722 61.43C48.4089 61.43 44.2982 60.1721 40.8344 57.7924C40.6574 57.6708 40.5394 57.4806 40.5085 57.2682C40.478 57.0555 40.5374 56.84 40.673 56.673C41.5725 55.5665 42.4174 54.3885 43.2346 53.2494C43.4826 52.9042 43.963 52.8255 44.3074 53.0728C44.6526 53.3204 44.7316 53.8009 44.484 54.1456C43.8137 55.08 43.125 56.0405 42.3961 56.9768C45.4529 58.8865 49.0046 59.8916 52.722 59.8916C57.6668 59.8916 61.2855 58.7786 63.4774 56.5835C66.4816 53.5745 66.4747 49.0407 66.4687 45.3979L66.4683 44.9464C66.4683 43.8221 66.4579 42.6951 66.4462 41.5697C62.8914 43.1499 58.9211 44.0437 55.3798 44.0437C55.1426 44.0437 54.905 44.0397 54.6674 44.0329C54.2428 44.0196 53.9092 43.6648 53.9225 43.2402C53.9357 42.8159 54.2709 42.4695 54.7152 42.4952C54.9371 42.5025 55.1583 42.5057 55.3802 42.5057C59.0615 42.5057 63.2462 41.4742 66.8605 39.6756C67.0969 39.5572 67.379 39.5701 67.6046 39.7082C67.8306 39.8466 67.969 40.0915 67.9718 40.3564L67.9791 41.0587C67.9931 42.3531 68.0068 43.6516 68.0068 44.9464L68.0072 45.3951C68.0132 49.1149 68.0212 54.2094 64.5659 57.67C62.0397 60.2002 58.1657 61.43 52.722 61.43Z" fill="#FF5678"/>
<path d="M59.149 60.6349C59.0704 60.6349 58.9905 60.6229 58.9114 60.5972C58.5077 60.466 58.2861 60.0325 58.4174 59.6279C59.013 57.7945 59.4669 55.9281 59.9574 53.8531C60.018 53.5974 60.205 53.3903 60.4527 53.3036C61.4914 52.942 62.5153 52.5603 63.4978 52.1694C63.8912 52.0108 64.3395 52.2047 64.4968 52.5996C64.6538 52.9942 64.4615 53.4413 64.0666 53.5986C63.19 53.9474 62.2805 54.2894 61.3574 54.6165C60.8954 56.5631 60.4539 58.3375 59.8803 60.1031C59.7748 60.4286 59.4733 60.6349 59.149 60.6349Z" fill="#FF5678"/>
</svg>
