<svg width="71" height="62" viewBox="0 0 71 62" fill="none" xmlns="http://www.w3.org/2000/svg">
<path d="M1.32359 31.5012C1.12999 31.5012 1.12962 31.8021 1.32359 31.8021C1.51719 31.8021 1.51756 31.5012 1.32359 31.5012Z" fill="#E0DFE6"/>
<path d="M55.9343 23.9557C55.5651 23.9557 55.255 23.6677 55.2322 23.2945C54.9729 19.0272 54.7583 15.3216 54.7583 13.1902C54.7583 11.3728 54.8351 9.51653 54.9101 7.72086C54.9843 5.93254 55.0607 4.08324 55.0607 2.28095C55.0607 2.10389 54.9222 1.95841 54.7447 1.94959C47.0922 1.58039 40.7651 1.4081 34.833 1.4081C27.2807 1.4081 21.1516 1.68032 14.9594 2.29087C14.5744 2.32687 14.228 2.04694 14.1898 1.65974C14.1515 1.27291 14.4341 0.928325 14.8209 0.89012C21.0609 0.27442 27.2326 0 34.833 0C40.7883 0 47.1367 0.17266 54.8127 0.543329C55.7414 0.588148 56.4688 1.35116 56.4688 2.28059C56.4688 4.11226 56.3916 5.97625 56.3167 7.7789C56.2429 9.56024 56.1664 11.4022 56.1664 13.1902C56.1664 15.2819 56.3795 18.9651 56.6378 23.2089C56.6613 23.5972 56.3659 23.9307 55.978 23.9542C55.9629 23.9553 55.9486 23.9557 55.9343 23.9557Z" fill="#FF5678"/>
<path d="M17.4207 43.0165C13.1079 43.0165 8.75939 42.9592 4.49505 42.8457C3.24638 42.8126 2.18911 41.8931 1.98192 40.6599C0.66713 32.8387 0 20.8605 0 5.05768V4.90118C0.000734725 3.75391 0.823259 2.78664 1.95621 2.60149C5.31463 2.05082 8.43685 1.60778 11.4999 1.2485C11.8849 1.20331 12.2361 1.4792 12.2813 1.86567C12.3269 2.25176 12.0502 2.60149 11.6641 2.64705C8.62237 3.00412 5.52109 3.44349 2.18397 3.99086C1.73432 4.06433 1.4081 4.44749 1.4081 4.90192V5.05805C1.4081 20.783 2.06825 32.683 3.37055 40.4266C3.46643 40.9979 3.95539 41.4236 4.53289 41.4391C8.78437 41.5518 13.1204 41.6092 17.4207 41.6092C25.844 41.6092 33.5343 41.4578 40.2795 41.1588C40.6733 41.1551 40.9969 41.4424 41.0138 41.831C41.0311 42.2197 40.7302 42.5485 40.3416 42.5654C33.5766 42.8648 25.8645 43.0165 17.4207 43.0165Z" fill="#FF5678"/>
<path d="M40.6307 59.1619C40.4885 59.1619 40.346 59.1185 40.2244 59.0325C39.796 58.7298 39.3537 58.4426 38.9125 58.1553C38.1782 57.6781 37.4192 57.1847 36.7212 56.6193C36.5144 56.4515 36.4196 56.1814 36.4765 55.9213C40.2137 38.8607 61.7603 13.4502 65.7278 13.4502C67.7663 13.4502 69.1902 15.0159 69.1902 17.2575C69.1902 20.2883 65.7759 26.2447 62.1622 32.5505C60.5616 35.3432 58.9062 38.2306 57.698 40.6475C57.072 41.8991 56.3622 43.1772 55.5283 44.5551C52.4814 49.5924 48.8001 53.6334 44.5868 56.5661L43.1379 57.5719C42.4366 58.0579 41.7346 58.5447 41.0344 59.0344C40.9128 59.1192 40.7717 59.1619 40.6307 59.1619ZM37.9489 55.7924C38.493 56.2035 39.0723 56.58 39.6796 56.9749C39.9973 57.1814 40.3151 57.3882 40.6285 57.6006C41.1971 57.2038 41.7666 56.8093 42.3356 56.4151L43.7823 55.4107C47.8324 52.5916 51.379 48.6939 54.3234 43.8263C55.1378 42.481 55.8292 41.2353 56.4383 40.0179C57.6645 37.5653 59.3298 34.6602 60.9399 31.8507C64.147 26.2554 67.7817 19.9136 67.7817 17.2579C67.7817 15.8002 66.975 14.8587 65.7271 14.8587C63.0876 15.0515 42.0678 38.1689 37.9489 55.7924Z" fill="#FF5678"/>
<path d="M67.8434 20.7673C67.7475 20.7673 67.6502 20.7478 67.5572 20.7063C66.3115 20.1509 64.183 19.3949 60.8584 18.3269C60.4881 18.2083 60.2846 17.8115 60.4032 17.4416C60.5222 17.0717 60.9197 16.8678 61.2886 16.9864C64.7091 18.0852 66.8192 18.8357 68.13 19.4202C68.4852 19.5785 68.6446 19.9948 68.4863 20.3496C68.3698 20.6119 68.1127 20.7673 67.8434 20.7673Z" fill="#FF5678"/>
<path d="M68.3504 16.0602C68.2821 16.0602 68.2122 16.0503 68.1432 16.029C67.7714 15.9148 67.5628 15.5209 67.677 15.1495C67.907 14.4005 68.2446 13.6852 68.5704 12.9931C68.6366 12.8524 68.703 12.7117 68.7688 12.5703C68.3228 12.3877 67.8401 12.2213 67.3129 12.0674C67.2791 12.1133 67.2454 12.1592 67.2116 12.2051C66.7483 12.8322 66.3108 13.4248 66.0577 14.1206C65.925 14.4861 65.5206 14.6742 65.1558 14.5416C64.7903 14.4089 64.6018 14.0048 64.7348 13.6397C65.0573 12.7529 65.5768 12.0494 66.079 11.369C66.2053 11.1982 66.3317 11.027 66.4555 10.8521C66.6252 10.6119 66.9272 10.5031 67.2112 10.5781C68.2791 10.8621 69.1931 11.1894 70.005 11.5788C70.3448 11.7423 70.4961 12.1438 70.3477 12.4906C70.1876 12.8649 70.0153 13.2308 69.8444 13.5941C69.5252 14.2712 69.2243 14.9108 69.0234 15.5639C68.9297 15.8655 68.6512 16.0602 68.3504 16.0602Z" fill="#FF5678"/>
<path d="M64.8535 35.2422C64.4813 35.2422 63.9038 35.1015 63.4002 34.7764C62.7128 34.333 62.3183 33.6548 62.2896 32.8668C62.2059 30.5895 64.0794 29.2016 65.8909 27.8593C67.7648 26.4707 69.5355 25.1592 69.4543 22.9469C69.4025 21.5436 68.7181 20.2273 67.6682 19.5117C67.3471 19.2928 67.2641 18.8549 67.483 18.5334C67.702 18.2124 68.1402 18.129 68.4613 18.3483C69.8735 19.3108 70.793 21.0532 70.8609 22.8948C70.9693 25.8487 68.7166 27.5177 66.7288 28.9904C66.032 29.5066 65.3751 29.9933 64.852 30.4981C65.1014 30.451 65.3134 30.4257 65.5118 30.4187C66.2722 30.3893 66.7237 30.6821 66.9724 30.9301C67.2953 31.2537 67.4761 31.7056 67.4955 32.2364C67.5135 32.7228 67.2685 33.4322 66.8857 34.0012C66.3663 34.7731 65.6628 35.2135 64.9038 35.2411C64.8876 35.2418 64.8707 35.2422 64.8535 35.2422ZM64.1771 31.2783C63.8568 31.7475 63.6753 32.2489 63.6963 32.8147C63.7271 33.6471 64.7117 33.8271 64.8524 33.8345C65.5779 33.8076 66.0992 32.5913 66.0889 32.2882C66.0827 32.1207 66.0426 31.9918 65.9761 31.9253C65.8795 31.8283 65.6708 31.822 65.5636 31.8254C65.4166 31.8309 65.2388 31.8551 65.0195 31.9003C64.6367 31.9767 64.2664 31.7324 64.1882 31.3522C64.1834 31.3276 64.1793 31.303 64.1771 31.2783Z" fill="#FF5678"/>
<path d="M49.4069 37.561C48.3181 37.561 47.3258 36.7961 46.95 36.467C46.6572 36.2113 46.6279 35.7664 46.8839 35.474C47.1392 35.1812 47.5845 35.1511 47.8769 35.4079C48.378 35.8461 48.9338 36.1261 49.3467 36.1514C50.2644 35.6904 53.2338 30.8386 53.6518 29.7409C53.5519 29.5675 53.0593 29.2082 52.4164 28.9937C52.0476 28.8706 51.8484 28.4721 51.9715 28.1036C52.0942 27.7348 52.4932 27.5356 52.862 27.6587C53.2319 27.7821 55.0761 28.464 55.0761 29.7791C55.0761 30.2659 51.2731 37.561 49.4069 37.561Z" fill="#FF5678"/>
<path d="M47.4728 54.0772C47.3321 54.0772 47.1903 54.035 47.0665 53.9475C44.5416 52.1581 41.9091 50.6552 39.2417 49.48C38.8857 49.3232 38.7244 48.9077 38.8813 48.5521C39.0385 48.1965 39.4536 48.0348 39.8092 48.1913C42.5634 49.4047 45.2793 50.955 47.8809 52.7984C48.198 53.0232 48.2729 53.463 48.0484 53.78C47.9107 53.974 47.6936 54.0772 47.4728 54.0772Z" fill="#FF5678"/>
<path d="M36.0258 61.43C35.8432 61.43 35.4641 61.43 35.208 61.1075C35.017 60.8672 35.0174 60.6064 35.0174 60.3761C35.0174 59.3126 35.5647 58.475 36.0941 57.6649C36.3704 57.2425 36.6312 56.8431 36.8005 56.4365C36.9497 56.0779 37.3619 55.9075 37.7212 56.0574C38.0801 56.2065 38.2498 56.6187 38.1003 56.978C37.881 57.5048 37.5716 57.9779 37.2726 58.4357C37.0908 58.7134 36.9133 58.9852 36.7678 59.2523C37.1646 58.8467 37.5915 58.3791 37.8666 58.0778C38.1796 57.7355 38.4584 57.4302 38.6565 57.2326C38.9316 56.9574 39.3772 56.9578 39.652 57.2322C39.9268 57.507 39.9272 57.9526 39.6524 58.2277C39.465 58.4151 39.2024 58.7038 38.9066 59.0275C37.2329 60.8595 36.6172 61.43 36.0258 61.43ZM36.4266 60.4962H36.4332H36.4266Z" fill="#FF5678"/>
<path d="M29.1848 24.4818C27.5603 24.4818 26.071 23.2589 25.3039 22.5006L0.658689 4.43593C0.345329 4.20596 0.277366 3.76549 0.507335 3.45213C0.737304 3.13877 1.17777 3.07081 1.49113 3.30041L26.179 21.3963C26.208 21.4176 26.2352 21.4408 26.2606 21.4661C27.2826 22.4878 28.3486 23.0737 29.1851 23.0737C29.6271 23.0737 30.0198 22.9168 30.3857 22.5947C33.2011 20.1135 36.0956 17.6323 38.8953 15.2334C44.2275 10.6635 49.7413 5.9377 54.9442 1.00513C55.2256 0.737686 55.6709 0.749442 55.9394 1.03158C56.2065 1.31371 56.1944 1.75969 55.9126 2.02676C50.6839 6.98395 45.1566 11.7211 39.8111 16.3021C37.0151 18.698 34.1243 21.1759 31.3162 23.6505C30.6906 24.2022 29.9739 24.4818 29.1848 24.4818Z" fill="#FF5678"/>
<path d="M3.12404 42.1911C3.09318 42.1911 3.06232 42.1892 3.0311 42.1848C2.64573 42.1341 2.37425 41.7804 2.42531 41.395C2.82574 38.3562 8.2403 31.3671 18.5184 20.6218C18.7873 20.3404 19.2325 20.3304 19.5136 20.5997C19.7946 20.8686 19.8045 21.3142 19.5356 21.5949C6.33552 35.3956 4.02371 40.0391 3.82092 41.5787C3.7739 41.9336 3.47156 42.1911 3.12404 42.1911Z" fill="#FF5678"/>
<path d="M49.2211 29.395C49.0146 29.395 48.8104 29.3042 48.6711 29.1308C48.2718 28.6312 47.9434 28.3043 47.5731 28.0365C47.5158 27.995 47.4651 27.9454 47.4225 27.8888C47.4059 27.8719 46.4313 26.7904 38.04 20.187C37.7344 19.9468 37.6818 19.5041 37.9221 19.1988C38.1627 18.8932 38.6061 18.8406 38.9103 19.0809C46.4023 24.9763 48.0822 26.5428 48.4562 26.9384C48.9106 27.2753 49.3074 27.6724 49.7703 28.2514C50.0131 28.5552 49.9639 28.9982 49.6604 29.241C49.5308 29.3446 49.3754 29.395 49.2211 29.395Z" fill="#FF5678"/>
</svg>
